<?xml version="1.0" encoding="utf-8"?>
<!-- Generator: Adobe Illustrator 16.0.0, SVG Export Plug-In . SVG Version: 6.00 Build 0)  -->
<!DOCTYPE svg PUBLIC "-//W3C//DTD SVG 1.1//EN" "http://www.w3.org/Graphics/SVG/1.1/DTD/svg11.dtd">
<svg version="1.1" id="Layer_1" xmlns="http://www.w3.org/2000/svg" xmlns:xlink="http://www.w3.org/1999/xlink" x="0px" y="0px"
	 width="238.5px" height="111.5px" viewBox="0 0 238.5 111.5" enable-background="new 0 0 238.5 111.5" xml:space="preserve">
<g display="none">
	<rect x="93.885" y="17.931" display="inline" fill="#D33327" width="52.563" height="75.422"/>
	<path display="inline" fill="#FFFFFF" d="M105.798,23.348c0.184,0-8.29,0-8.29,0v0.488h1.463V38.1h-1.463v0.549h5.974v-0.61h-1.401
		v-6.035h3.9c0,0,3.475,0.062,3.475-4.145S105.616,23.348,105.798,23.348z M102.019,31.639v-7.925c0,0,4.633-0.67,4.633,3.963
		C106.652,32.31,102.019,31.639,102.019,31.639z"/>
	<polygon display="inline" fill="#FFFFFF" points="115.079,23.348 120.724,23.348 120.724,23.877 119.484,23.877 119.556,38.114 
		120.724,38.114 120.724,38.649 115.079,38.649 115.079,38.162 116.442,38.162 116.442,23.854 115.079,23.877 	"/>
	<path display="inline" fill="#FFFFFF" d="M138.172,26.238c0,0,0.073-2.19,0-2.19c-0.072,0-2.068-0.852-4.233-0.852
		c0,0-6.911-0.462-6.863,8.688c0,0,0.098,6.619,7.082,7.301c0,0,2.814-0.122,4.048-1.046v-1.85h-0.544v0.414
		c0,0-0.823,1.969-3.383,1.947s-3.674-3.255-3.674-7.65c0-4.396,0.878-7.479,3.796-7.438c0,0,3.091,0.073,3.188,2.677H138.172z"/>
	<g display="inline">
		<path fill="#FFFFFF" d="M141.3,22.765c0.288,0,0.569,0.073,0.845,0.222c0.273,0.147,0.487,0.36,0.641,0.634
			c0.153,0.276,0.23,0.563,0.23,0.862c0,0.296-0.076,0.58-0.226,0.853c-0.152,0.273-0.363,0.485-0.636,0.636
			c-0.271,0.151-0.557,0.226-0.854,0.226c-0.297,0-0.582-0.075-0.854-0.226c-0.273-0.151-0.485-0.363-0.637-0.636
			c-0.152-0.273-0.229-0.557-0.229-0.853c0-0.299,0.078-0.585,0.232-0.862c0.153-0.274,0.367-0.487,0.642-0.634
			C140.73,22.838,141.012,22.765,141.3,22.765z M141.3,23.049c-0.241,0-0.476,0.062-0.704,0.185c-0.229,0.125-0.407,0.3-0.535,0.531
			c-0.13,0.229-0.194,0.469-0.194,0.718c0,0.247,0.064,0.484,0.19,0.711c0.127,0.227,0.305,0.403,0.532,0.529
			c0.228,0.127,0.464,0.19,0.711,0.19s0.484-0.063,0.712-0.19c0.228-0.126,0.404-0.303,0.531-0.529
			c0.125-0.227,0.188-0.464,0.188-0.711c0-0.249-0.063-0.489-0.191-0.718c-0.129-0.23-0.308-0.406-0.537-0.531
			C141.774,23.111,141.541,23.049,141.3,23.049z M140.546,25.431v-1.848h0.636c0.217,0,0.373,0.018,0.472,0.051
			c0.096,0.035,0.173,0.094,0.23,0.179c0.058,0.085,0.088,0.175,0.088,0.271c0,0.135-0.049,0.252-0.146,0.352
			c-0.096,0.1-0.225,0.156-0.382,0.168c0.063,0.027,0.116,0.06,0.156,0.098c0.074,0.073,0.165,0.195,0.272,0.366l0.227,0.362h-0.364
			l-0.164-0.292c-0.13-0.229-0.233-0.372-0.312-0.43c-0.056-0.042-0.134-0.064-0.24-0.064h-0.175v0.785H140.546z M140.845,24.392
			h0.363c0.173,0,0.289-0.026,0.353-0.078c0.063-0.052,0.095-0.12,0.095-0.205c0-0.054-0.016-0.103-0.046-0.147
			c-0.03-0.042-0.072-0.075-0.126-0.096c-0.055-0.021-0.154-0.032-0.3-0.032h-0.339V24.392z"/>
	</g>
</g>
<g display="none">
	<g display="inline">
		<g>
			<g>
				<circle fill="#231F1F" cx="121.114" cy="47.252" r="29.458"/>
				<path fill="#F48220" d="M119.819,27.274l-0.343-0.968c-0.929-1.655-2.619-2.514-4.552-2.309
					c-1.41,0.035-2.687,1.172-3.271,2.413c-0.828,1.552-0.379,3.652,0.688,4.962c0.183,0.191,0.397,0.338,0.725,0.449
					c0.309,2.448,0.791,5.619-1.652,7.203c-1.074,0.687-2.691,1.035-3.931,0.413c-2.724-0.999-2.689-4.097-2.724-6.58
					c0-1.173,0.208-2.656-1.103-3.343c-0.682-0.264-1.5-0.192-2.05,0.342c-4.14,4.638-6.662,10.747-6.662,17.45
					c0,10.375,6.033,19.335,14.782,23.577h-0.003c0.075,0.041,0.163,0.065,0.254,0.065c0.292,0,0.528-0.238,0.528-0.529
					c0-0.127-0.045-0.245-0.12-0.334h-0.004c-2.2-2.513-3.534-5.797-3.534-9.396c0-1.553,0.248-3.085,0.734-4.508
					c0.083-0.269,0.207-0.494,0.35-0.691c-1.228-1.317-1.909-3.077-2.145-4.627l-0.004-0.03L105.78,50.8
					c-0.033-0.305-0.051-0.656-0.051-1.03c0-1.522,0.313-3.438,1.286-4.133c0.496-0.353,1.109-0.414,1.645-0.163l0.035,0.016
					l1.736,0.908c1.077,0.56,2.218,1.158,3.34,1.758c0.129-0.168,0.271-0.33,0.45-0.455l0.058-0.049l0.065-0.039
					c1.856-1.063,3.953-1.671,6.096-1.778C120.268,39.465,120.133,33.711,119.819,27.274z M115.517,29.451
					c-0.702,0-1.272-0.568-1.272-1.272c0-0.7,0.57-1.268,1.272-1.268c0.7,0,1.27,0.568,1.27,1.268
					C116.787,28.883,116.217,29.451,115.517,29.451z"/>
				<path fill="#C6C7C9" d="M128.397,22.134c-0.614-0.152-1.303-0.385-1.902-0.089c0,0-0.24,0.263,0.162,0.417
					c1.079,0.415,3.425,2.318,3.479,2.79c0.105,1.172-0.517,2.243-1.55,2.79c-0.356,0.157-1.275,0.384-1.827,0
					c-0.583-0.996-1.344-1.963-2.416-2.477c-0.617-0.209-1.273-0.242-1.859,0.103c-0.618,0.379-1.17,1.067-1.1,1.757
					c0.169,6.17,0.16,11.393,0.503,17.494c0.059,1.463,4.613,2.492,5.216,2.249l5.625-2.974c0.349-0.169,0.794,0.523,0.383,0.744
					l-4.33,2.203c-0.416,0.229-0.058,0.869,0.441,0.637c0.891-0.473,1.783-0.938,2.63-1.379l1.739-0.908l0.032-0.016
					c0.538-0.251,1.154-0.19,1.645,0.163c0.974,0.694,1.285,2.61,1.285,4.133c0,0.374-0.018,0.725-0.048,1.03l-0.004,0.033
					l-0.005,0.03c-0.234,1.55-0.916,3.31-2.141,4.623c0.141,0.191,0.262,0.407,0.346,0.661c0.488,1.456,0.737,2.988,0.737,4.542
					c0,3.599-1.336,6.888-3.539,9.401l-0.003-0.005c-0.071,0.089-0.116,0.208-0.116,0.334c0,0.291,0.235,0.529,0.531,0.529
					c0.089,0,0.176-0.025,0.25-0.067l-0.007,0.005c8.75-4.239,14.782-13.206,14.782-23.581
					C147.337,35.355,139.337,25.282,128.397,22.134z M124.961,45.136c-0.383,0.378-1.034,0.173-1.24-0.309
					c0.137-0.793-1.374-1.556,0.073-1.974c0.654-0.028,1.258,0.124,1.533,0.746C125.603,44.083,125.271,44.725,124.961,45.136z
					 M125.082,32.126c0.418,0.744-0.373,1.246-0.373,1.246c-0.554,0.277-1.698-0.41-2.279-0.06
					c-0.116-0.113,0.535-1.023,0.883-1.302c0.536-0.395,1.813-1.325,2.256-1.187C125.615,30.939,124.976,31.938,125.082,32.126z
					 M134.393,29.611c-0.031,0.07-0.756,1.674-2.145,2.359c-0.864,0.427-2.437,1.194-4.548,0.548
					c-0.248-0.081-0.248-0.699-0.018-0.638c1.663,0.442,3.174,0.114,4.296-0.443c1.201-0.594,1.84-2.008,1.867-2.069
					c0.058-0.131,0.075-0.225,0.077-0.274c-0.777-0.758-2.033-1.011-2.276-1.053c-0.171-0.031-0.446,0.028-0.514,0.059
					c-0.125,0.063-3.824,2.082-3.824,2.082c-0.175,0.099-0.445-0.438-0.292-0.525c0,0,3.747-2.046,3.864-2.101
					c0.171-0.076,0.565-0.156,0.869-0.103c0.278,0.048,1.729,0.34,2.631,1.252C134.639,28.962,134.475,29.426,134.393,29.611z"/>
				<g>
					<path fill="#FDC45A" d="M123.443,70.61L123.443,70.61h-4.589c-0.039,0-0.07,0.03-0.07,0.064c0,0.019,0.011,0.04,0.024,0.053
						c0.663,0.492,1.466,0.783,2.335,0.783c0.85,0,1.662-0.273,2.346-0.783l0,0c0.011-0.013,0.021-0.034,0.021-0.053
						C123.51,70.64,123.483,70.61,123.443,70.61z"/>
					<path fill="#FDC45A" d="M131.331,55.741c2.172-0.727,3.382-3.033,3.691-5.1c0.216-1.996-0.373-3.995-0.765-3.815
						c-2.618,1.385-6.121,3.148-8.67,4.699c-0.096,0.07-0.084-0.157-0.328-0.534c0.047-0.068,1.629-0.929,2.041-1.351
						c0.242-0.207,0.136-0.551-0.103-0.723l0.004-0.003c-1.784-1.021-3.854-1.607-6.06-1.607c-2.204,0-4.271,0.586-6.059,1.607
						l0.006,0.003c-0.24,0.172-0.343,0.516-0.104,0.723c0.413,0.422,1.993,1.283,2.041,1.351c-0.242,0.377-0.232,0.604-0.325,0.534
						c-2.551-1.551-6.05-3.313-8.672-4.697c-0.392-0.182-0.978,1.82-0.762,3.813c0.311,2.067,1.516,4.373,3.687,5.1
						c0.417,0.171,1.1,0.205,1.277,0.618c0.048,0.26-0.07,0.758-0.483,0.726c-0.793-0.208-1.398-0.361-2.243-0.812
						c-0.277-0.103-0.397,0.036-0.494,0.349L109,56.621c-0.427,1.277-0.661,2.646-0.661,4.068c0,7.071,5.733,12.802,12.802,12.802
						c7.068,0,12.803-5.731,12.803-12.802c0-1.421-0.231-2.791-0.66-4.068l-0.006,0.001c-0.099-0.313-0.22-0.452-0.495-0.349
						c-0.846,0.447-1.453,0.604-2.242,0.812c-0.414,0.033-0.531-0.466-0.482-0.726C130.233,55.946,130.92,55.912,131.331,55.741z
						 M115.953,56.23c0-0.408,0.332-0.737,0.74-0.737c0.41,0,0.741,0.329,0.741,0.737c0,0.409-0.331,0.744-0.741,0.744
						C116.285,56.974,115.953,56.639,115.953,56.23z M124.822,70.221v0.007c-0.14,0.185-0.295,0.365-0.465,0.536
						c-0.868,0.863-2.006,1.346-3.214,1.346c-1.493,0-2.821-0.743-3.672-1.882v-0.007c-0.018-0.017-0.028-0.047-0.028-0.074
						c0-0.078,0.061-0.137,0.133-0.137h7.141c0.073,0,0.131,0.059,0.131,0.137C124.849,70.174,124.839,70.204,124.822,70.221z
						 M125.491,68.969c-0.043,0.141-0.2,0.258-0.347,0.258h-8.002c-0.144,0-0.297-0.118-0.342-0.258l0,0
						c-0.194-0.528-0.301-1.104-0.301-1.706c0-1.334,0.506-2.575,1.429-3.5c0.871-0.866,2.01-1.346,3.213-1.346
						c2.564,0,4.647,2.175,4.647,4.847C125.789,67.856,125.686,68.435,125.491,68.969z M125.591,56.974
						c-0.406,0-0.74-0.335-0.74-0.744c0-0.408,0.333-0.737,0.74-0.737c0.41,0,0.743,0.329,0.743,0.737
						C126.334,56.639,126.001,56.974,125.591,56.974z"/>
					<path fill="#FDC45A" d="M121.141,63.014c-1.042,0-2.035,0.417-2.791,1.174c-0.808,0.806-1.255,1.901-1.255,3.075
						c0,0.383,0.052,0.754,0.145,1.11l0,0c0.038,0.138,0.186,0.257,0.331,0.257h7.146c0.146,0,0.295-0.12,0.329-0.257
						c0,0,0.143-0.731,0.143-1.11C125.189,64.92,123.377,63.014,121.141,63.014z M119.556,66.367c-0.292,0-0.531-0.236-0.531-0.526
						c0-0.292,0.239-0.531,0.531-0.531c0.291,0,0.527,0.239,0.527,0.531C120.083,66.131,119.847,66.367,119.556,66.367z
						 M122.732,66.367c-0.292,0-0.529-0.236-0.529-0.526c0-0.292,0.237-0.531,0.529-0.531c0.289,0,0.526,0.239,0.526,0.531
						C123.258,66.131,123.021,66.367,122.732,66.367z"/>
				</g>
				<g>
					<path fill="#FDC45A" d="M109.978,36.012c-0.056-1.424,0.957-2.462,2.057-3.35c0.637,1.512,0.464,3.762-0.835,4.244
						C110.631,37.02,110.035,36.481,109.978,36.012z"/>
					<path fill="#FDC45A" d="M108.319,28.592c0.068-0.119,1.691-0.099,2.162-0.095c0.051,0.632,0.126,1.155,0.35,1.7
						C110.296,29.919,108.146,28.874,108.319,28.592z"/>
					<path fill="#FDC45A" d="M108.157,27.941c-0.072-0.174,1.867-1.454,2.625-1.625c-0.181,0.522-0.301,1.179-0.308,1.677
						C109.855,27.994,108.342,28.104,108.157,27.941z"/>
					<path fill="#FDC45A" d="M117.781,23.688c-0.936-0.371-1.892-0.461-3-0.49c0.58-0.836,1.286-1.489,1.975-1.625
						c1.512,0.166,0.745,1.119,2.559,1.119c0.858,0.602,0.451,1.968,0.417,2.555C119.431,24.78,118.392,23.943,117.781,23.688z"/>
				</g>
				<g>
					<path fill="#808184" d="M124.794,24.951c-0.964-0.448-1.996-0.654-3.067-0.791c-0.271-0.064-0.477-0.78-0.241-0.863
						c1.863-0.754,4.152-0.318,5.826,0.484c0.819,0.47,1.705,0.831,1.827,1.862c0.035,0.834-0.417,1.193-1.14,1.618
						c-0.238,0.174-0.617-0.049-0.818-0.238C126.417,26.087,125.701,25.389,124.794,24.951z"/>
				</g>
			</g>
		</g>
	</g>
	<g display="inline">
		<path fill="#231F1F" d="M74.583,89.827c-0.194-0.211-0.522-0.229-0.745-0.04c-0.937,0.794-2.114,1.248-3.23,1.248
			c-2.456,0-4.379-1.854-4.379-4.221c0-2.357,1.923-4.204,4.379-4.204c1.125,0,2.326,0.493,3.213,1.32
			c0.107,0.099,0.254,0.15,0.401,0.141c0.149-0.01,0.289-0.08,0.382-0.194l0.898-1.092c0.177-0.216,0.153-0.528-0.054-0.712
			c-1.314-1.16-3.092-1.825-4.877-1.825c-3.947,0-7.039,2.892-7.039,6.584c0,3.732,3.059,6.656,6.965,6.656
			c1.736,0,3.59-0.726,4.959-1.942c0.215-0.19,0.23-0.519,0.034-0.731L74.583,89.827z"/>
		<path fill="#231F1F" d="M83.225,80.248c-4.044,0-7.094,2.838-7.094,6.603c0,3.722,3.116,6.638,7.094,6.638
			s7.094-2.916,7.094-6.638C90.319,83.147,87.203,80.248,83.225,80.248z M83.244,91.107c-2.435,0-4.416-1.909-4.416-4.257
			c0-2.328,1.981-4.222,4.416-4.222c2.445,0,4.36,1.854,4.36,4.222C87.604,89.198,85.648,91.107,83.244,91.107z"/>
		<path fill="#231F1F" d="M103.325,80.302h-1.552c-0.295,0-0.535,0.234-0.535,0.522v7.917c0,0.01,0,0.039-0.038,0.052
			c-0.038,0.012-0.056-0.012-0.062-0.02l-6.308-8.262c-0.101-0.132-0.261-0.21-0.429-0.21h-1.7c-0.295,0-0.535,0.234-0.535,0.522
			v12.052c0,0.288,0.24,0.522,0.535,0.522h1.589c0.295,0,0.535-0.234,0.535-0.522v-7.896c0-0.01,0-0.039,0.038-0.052
			c0.038-0.012,0.056,0.012,0.062,0.02l6.271,8.24c0.101,0.132,0.261,0.211,0.43,0.211h1.699c0.295,0,0.535-0.234,0.535-0.522
			V80.824C103.86,80.536,103.62,80.302,103.325,80.302z"/>
		<path fill="#231F1F" d="M115.573,80.302h-9.774c-0.295,0-0.535,0.234-0.535,0.522v1.336c0,0.288,0.24,0.522,0.535,0.522h3.493
			c0.031,0,0.055,0.024,0.055,0.054v10.14c0,0.288,0.24,0.522,0.535,0.522h1.59c0.295,0,0.535-0.234,0.535-0.522v-10.14
			c0-0.029,0.025-0.054,0.055-0.054h3.511c0.295,0,0.535-0.234,0.535-0.522v-1.336C116.108,80.536,115.868,80.302,115.573,80.302z"
			/>
		<path fill="#231F1F" d="M126.897,91.018h-6.689c-0.03,0-0.055-0.024-0.055-0.054v-2.905c0-0.03,0.025-0.054,0.055-0.054h5.728
			c0.295,0,0.535-0.234,0.535-0.523v-1.335c0-0.288-0.24-0.522-0.535-0.522h-5.728c-0.03,0-0.055-0.024-0.055-0.055v-2.833
			c0-0.029,0.025-0.054,0.055-0.054h6.467c0.295,0,0.535-0.234,0.535-0.522v-1.336c0-0.288-0.24-0.522-0.535-0.522h-8.647
			c-0.295,0-0.535,0.234-0.535,0.522v12.052c0,0.288,0.24,0.522,0.535,0.522h8.869c0.295,0,0.535-0.234,0.535-0.522V91.54
			C127.433,91.252,127.192,91.018,126.897,91.018z"/>
		<path fill="#231F1F" d="M151.883,89.023c1.614-0.742,2.502-2.225,2.502-4.176c0-2.889-1.986-4.546-5.45-4.546h-4.952
			c-0.295,0-0.535,0.234-0.535,0.522v12.052c0,0.288,0.24,0.522,0.535,0.522h1.59c0.295,0,0.535-0.234,0.535-0.522v-3.23
			c0-0.029,0.025-0.054,0.056-0.054h2.771c0.143,0,0.286,0,0.422-0.006c0.026-0.002,0.046,0.009,0.056,0.025l2.186,3.534
			c0.097,0.156,0.272,0.253,0.458,0.253h1.755c0.198,0,0.379-0.106,0.472-0.276c0.093-0.171,0.083-0.377-0.028-0.537l-2.395-3.485
			c-0.012-0.018-0.01-0.035-0.007-0.044C151.859,89.045,151.866,89.031,151.883,89.023z M151.836,84.901
			c0,1.533-0.976,2.31-2.901,2.31h-2.771c-0.031,0-0.056-0.024-0.056-0.054v-4.421c0-0.029,0.025-0.054,0.056-0.054h2.771
			C150.86,82.683,151.836,83.43,151.836,84.901z"/>
		<path fill="#231F1F" d="M163.605,80.615c-0.085-0.19-0.277-0.313-0.49-0.313h-1.85c-0.212,0-0.404,0.122-0.489,0.312
			l-5.448,12.052c-0.074,0.162-0.058,0.348,0.041,0.496s0.267,0.237,0.448,0.237h1.624c0.215,0,0.409-0.125,0.493-0.318l1.085-2.499
			c0.009-0.02,0.029-0.033,0.051-0.033h6.131c0.022,0,0.042,0.014,0.051,0.033l1.085,2.499c0.084,0.193,0.278,0.318,0.493,0.318
			h1.681c0.181,0,0.349-0.089,0.448-0.236c0.099-0.148,0.115-0.334,0.043-0.496L163.605,80.615z M162.075,83.525
			c0.009-0.021,0.026-0.032,0.051-0.032c0.024,0,0.041,0.011,0.051,0.032l1.993,4.585c0.01,0.022,0.003,0.04-0.005,0.051
			c-0.007,0.011-0.021,0.024-0.046,0.024h-3.985c-0.025,0-0.039-0.014-0.046-0.024c-0.008-0.011-0.015-0.029-0.005-0.051
			L162.075,83.525z"/>
		<path fill="#231F1F" d="M178.161,90.999h-5.008c-0.03,0-0.055-0.023-0.055-0.054V80.824c0-0.288-0.24-0.522-0.535-0.522h-1.59
			c-0.295,0-0.535,0.234-0.535,0.522v12.052c0,0.288,0.24,0.522,0.535,0.522h7.188c0.295,0,0.535-0.234,0.535-0.522v-1.354
			C178.696,91.233,178.456,90.999,178.161,90.999z"/>
		<path fill="#231F1F" d="M140.309,86.724h-2.998c-0.258,0-0.468,0.205-0.468,0.457v1.199c0,0.252,0.21,0.457,0.468,0.457h1.15
			v1.471c0,0.021-0.01,0.04-0.027,0.049c-0.867,0.478-1.854,0.751-2.708,0.751c-2.518,0-4.489-1.87-4.489-4.257
			c0-2.378,1.964-4.24,4.471-4.24c1.188,0,2.411,0.437,3.355,1.198c0.11,0.089,0.25,0.129,0.392,0.113
			c0.144-0.017,0.278-0.09,0.366-0.202l0.873-1.106c0.178-0.225,0.139-0.55-0.086-0.725c-1.345-1.043-3.131-1.641-4.9-1.641
			c-4.086,0-7.168,2.838-7.168,6.603c0,3.722,3.092,6.638,7.039,6.638c1.72,0,3.653-0.612,5.046-1.599
			c0.137-0.098,0.219-0.256,0.219-0.424v-4.22C140.844,86.958,140.604,86.724,140.309,86.724z"/>
	</g>
</g>
<g display="none">
	<g display="inline">
		<g>
			<path fill="#2EA349" d="M66.822,91.165l0.55-1.657c0.702,0.313,1.45,0.462,2.244,0.462c0.939,0,1.194-0.139,1.271-0.697
				c0.069-0.501-0.104-0.608-1.441-1.085c-1.29-0.46-1.859-1.168-1.682-2.419c0.192-1.368,1.24-2.081,3.196-2.081
				c0.846,0,1.629,0.151,2.415,0.422l-0.565,1.666c-0.531-0.278-1.116-0.413-1.755-0.413c-0.876,0-1.113,0.121-1.18,0.607
				c-0.075,0.539,0.099,0.669,1.5,1.16c1.289,0.453,1.836,1.093,1.678,2.22c-0.213,1.52-1.351,2.309-3.466,2.309
				C68.532,91.658,67.633,91.481,66.822,91.165z"/>
			<path fill="#2EA349" d="M74.067,85.806h2.088l-0.808,5.746h-2.088L74.067,85.806z M74.187,84.116
				c0.115-0.812,0.471-1.105,1.339-1.105c0.85,0,1.116,0.291,1.001,1.095c-0.116,0.82-0.471,1.117-1.334,1.117
				C74.339,85.223,74.072,84.929,74.187,84.116z"/>
			<path fill="#2EA349" d="M81.925,87.679c-0.144,1.077-1.015,1.7-2.381,1.7c-0.487,0-0.978-0.068-1.445-0.206
				c0.007,0.742,0.376,0.947,1.414,0.947c0.566,0,1.144-0.105,1.594-0.29l0.134,1.545c-0.613,0.179-1.359,0.283-2.068,0.283
				c-2.312,0-3.283-0.929-2.994-2.979c0.266-1.894,1.486-2.979,3.367-2.979C81.226,85.7,82.094,86.422,81.925,87.679z
				 M79.304,87.138c-0.695,0-0.93,0.2-1.086,1.004c0.341,0.067,0.681,0.102,1.023,0.102c0.6,0,0.738-0.105,0.806-0.548
				C80.118,87.234,79.979,87.138,79.304,87.138z"/>
			<path fill="#2EA349" d="M91.931,87.772L91.4,91.552h-2.086l0.483-3.445c0.067-0.482-0.1-0.68-0.596-0.68
				c-0.318,0-0.681,0.089-0.996,0.265c-0.004,0.027-0.007,0.054-0.011,0.081l-0.53,3.779h-2.086l0.483-3.445
				c0.07-0.504-0.086-0.68-0.596-0.68c-0.337,0-0.701,0.101-0.997,0.265l-0.542,3.86H81.84l0.808-5.746h1.467l0.189,0.784h0.012
				c0.598-0.565,1.405-0.89,2.228-0.89c0.825,0,1.346,0.277,1.567,0.835c0.607-0.545,1.391-0.835,2.169-0.835
				C91.579,85.7,92.126,86.387,91.931,87.772z"/>
			<path fill="#2EA349" d="M98.58,88.679c-0.283,2.012-1.243,3.009-2.818,3.009c-0.737,0-1.261-0.253-1.565-0.565l-0.404,2.877
				h-2.086l1.151-8.193h1.46l0.198,0.786h0.012c0.581-0.602,1.36-0.892,2.158-0.892C98.228,85.7,98.859,86.688,98.58,88.679z
				 M95.668,87.333c-0.335,0-0.675,0.056-0.962,0.166l-0.336,2.394c0.226,0.1,0.543,0.137,0.889,0.137
				c0.806,0,1.046-0.271,1.196-1.354C96.604,87.602,96.446,87.333,95.668,87.333z"/>
			<path fill="#2EA349" d="M99.414,85.806h1.447l0.186,0.842h0.011c0.484-0.683,1.037-0.947,1.691-0.947
				c0.279,0,0.485,0.039,0.669,0.09l-0.478,1.879c-0.182-0.063-0.385-0.076-0.569-0.076c-0.44,0-0.818,0.118-1.139,0.356
				l-0.54,3.603h-2.085L99.414,85.806z"/>
			<path fill="#2EA349" d="M108.703,87.679c-0.145,1.077-1.015,1.7-2.382,1.7c-0.487,0-0.978-0.068-1.444-0.206
				c0.007,0.742,0.376,0.947,1.414,0.947c0.566,0,1.143-0.105,1.594-0.29l0.133,1.545c-0.612,0.179-1.359,0.283-2.067,0.283
				c-2.312,0-3.283-0.929-2.995-2.979c0.266-1.894,1.486-2.979,3.368-2.979C108.003,85.7,108.871,86.422,108.703,87.679z
				 M106.081,87.138c-0.694,0-0.93,0.2-1.086,1.004c0.341,0.067,0.682,0.102,1.024,0.102c0.6,0,0.738-0.105,0.805-0.548
				C106.895,87.234,106.756,87.138,106.081,87.138z"/>
			<path fill="#2EA349" d="M117.49,87.679c-0.145,1.077-1.015,1.7-2.382,1.7c-0.487,0-0.978-0.068-1.444-0.206
				c0.008,0.742,0.376,0.947,1.414,0.947c0.566,0,1.144-0.105,1.594-0.29l0.134,1.545c-0.612,0.179-1.359,0.283-2.067,0.283
				c-2.312,0-3.283-0.929-2.995-2.979c0.266-1.894,1.485-2.979,3.367-2.979C116.791,85.7,117.658,86.422,117.49,87.679z
				 M114.869,87.138c-0.695,0-0.93,0.2-1.086,1.004c0.341,0.067,0.682,0.102,1.023,0.102c0.6,0,0.739-0.105,0.806-0.548
				C115.682,87.234,115.544,87.138,114.869,87.138z"/>
			<path fill="#2EA349" d="M118.212,85.806h1.461l0.198,0.784h0.021c0.611-0.565,1.451-0.89,2.308-0.89
				c1.343,0,1.913,0.687,1.717,2.072l-0.531,3.779H121.3l0.483-3.445c0.075-0.538-0.053-0.693-0.653-0.693
				c-0.368,0-0.766,0.082-1.089,0.21l-0.55,3.929h-2.086L118.212,85.806z"/>
			<path fill="#2EA349" d="M132.862,87.679c-0.145,1.077-1.015,1.7-2.382,1.7c-0.487,0-0.978-0.068-1.444-0.206
				c0.007,0.742,0.376,0.947,1.414,0.947c0.567,0,1.144-0.105,1.594-0.29l0.134,1.545c-0.612,0.179-1.359,0.283-2.067,0.283
				c-2.313,0-3.283-0.929-2.995-2.979c0.266-1.894,1.485-2.979,3.367-2.979C132.163,85.7,133.031,86.422,132.862,87.679z
				 M130.241,87.138c-0.695,0-0.93,0.2-1.086,1.004c0.341,0.067,0.682,0.102,1.023,0.102c0.6,0,0.739-0.105,0.806-0.548
				C131.055,87.234,130.917,87.138,130.241,87.138z"/>
			<path fill="#2EA349" d="M133.944,83.529h2.088l-1.128,8.022h-2.088L133.944,83.529z"/>
			<path fill="#2EA349" d="M138.728,88.563c0.272-1.934,1.479-2.863,3.611-2.863c0.677,0,1.245,0.103,1.682,0.264l-0.521,1.505
				c-0.25-0.137-0.604-0.186-0.989-0.186c-1.179,0-1.512,0.282-1.669,1.409c-0.153,1.097,0.08,1.371,1.162,1.371
				c0.48,0,0.916-0.109,1.215-0.257l0.249,1.672c-0.552,0.124-1.192,0.18-1.797,0.18C139.454,91.658,138.439,90.613,138.728,88.563z
				"/>
			<path fill="#2EA349" d="M150.348,85.806l-0.808,5.746h-1.463l-0.209-0.688h-0.014c-0.566,0.505-1.338,0.794-2.125,0.794
				c-1.547,0-2.191-0.987-1.912-2.979c0.283-2.012,1.225-2.98,2.8-2.98c0.796,0,1.462,0.326,1.833,0.896h0.016l0.417-0.788H150.348z
				 M146.741,90.025c0.323,0,0.667-0.052,0.949-0.159l0.335-2.379c-0.227-0.107-0.554-0.159-0.897-0.159
				c-0.797,0-1.034,0.271-1.185,1.354C145.794,89.757,145.954,90.025,146.741,90.025z"/>
			<path fill="#2EA349" d="M160.198,87.772l-0.531,3.779h-2.085l0.483-3.445c0.067-0.482-0.1-0.68-0.596-0.68
				c-0.318,0-0.682,0.089-0.997,0.265c-0.003,0.027-0.007,0.054-0.011,0.081l-0.531,3.779h-2.085l0.483-3.445
				c0.07-0.504-0.086-0.68-0.596-0.68c-0.337,0-0.701,0.101-0.997,0.265l-0.542,3.86h-2.085l0.807-5.746h1.467l0.189,0.784h0.012
				c0.598-0.565,1.405-0.89,2.228-0.89c0.825,0,1.347,0.277,1.567,0.835c0.607-0.545,1.392-0.835,2.17-0.835
				C159.846,85.7,160.393,86.387,160.198,87.772z"/>
			<path fill="#2EA349" d="M166.847,88.679c-0.283,2.012-1.242,3.009-2.818,3.009c-0.737,0-1.261-0.253-1.565-0.565l-0.404,2.877
				h-2.086l1.151-8.193h1.461l0.198,0.786h0.012c0.58-0.602,1.36-0.892,2.159-0.892C166.495,85.7,167.126,86.688,166.847,88.679z
				 M163.935,87.333c-0.335,0-0.675,0.056-0.963,0.166l-0.336,2.394c0.226,0.1,0.544,0.137,0.889,0.137
				c0.807,0,1.045-0.271,1.196-1.354C164.871,87.602,164.713,87.333,163.935,87.333z"/>
			<path fill="#2EA349" d="M167.138,88.679c0.28-1.991,1.466-2.979,3.583-2.979c2.114,0,3.022,0.987,2.742,2.979
				c-0.279,1.991-1.466,2.979-3.58,2.979C167.766,91.658,166.857,90.67,167.138,88.679z M171.329,88.679
				c0.156-1.116-0.012-1.396-0.833-1.396c-0.824,0-1.069,0.279-1.225,1.396c-0.153,1.103,0.015,1.378,0.839,1.378
				C170.932,90.057,171.176,89.781,171.329,88.679z"/>
		</g>
	</g>
	<g display="inline">
		<g>
			<g>
				<g>
					<path fill="#FFFFFF" d="M106.497,18.061c-8.079,1.134-14.799,6.398-17.97,14.099c-3.185,7.712-5.528,17.331-6.609,27.086
						c-1.324,11.962,5.211,20.265,17.062,21.675c10.599,1.26,31.693,1.26,42.588,0c11.858-1.363,18.401-9.67,17.073-21.675
						c-1.085-9.756-3.427-19.374-6.606-27.086c-3.231-7.839-9.788-12.978-17.983-14.104
						C126.514,17.025,113.893,17.025,106.497,18.061z"/>
				</g>
			</g>
			<path fill="#FEDC00" d="M151.521,44.908c-1.051-4.184-2.284-7.965-3.608-11.178c-2.672-6.525-8.071-10.898-14.999-11.857
				c-6.933-0.957-18.771-0.947-25.493,0c-6.721,0.944-12.333,5.333-15.001,11.857c-1.318,3.213-2.555,6.994-3.604,11.178H151.521z"
				/>
			<path fill="#04A54F" d="M155.843,59.552c-0.458-4.147-1.139-8.119-1.962-11.839h-14.979c-1.484,7.977-9.193,14.061-18.477,14.061
				c-9.295,0-17.003-6.084-18.488-14.061H86.676c-0.829,3.72-1.502,7.692-1.961,11.839c-1.139,10.278,4.22,17.351,14.592,18.573
				c10.373,1.236,31.425,1.218,41.938,0C151.767,76.919,156.981,69.831,155.843,59.552z"/>
			<path fill="#04A54F" d="M97.907,41.938l5.025-1.194c0.177-0.042,0.234-0.264,0.1-0.386l-3.697-3.356
				c-0.154-0.14-0.053-0.395,0.154-0.393l5.628,0.067l-2.872-4.496c-0.111-0.173,0.049-0.391,0.247-0.339l5.043,1.325
				c0.17,0.045,0.324-0.115,0.273-0.283l-1.41-4.658c-0.059-0.194,0.148-0.36,0.325-0.263l4.518,2.5
				c0.151,0.084,0.337-0.027,0.334-0.2l-0.063-4.866c-0.002-0.2,0.237-0.304,0.381-0.166l3.68,3.517
				c0.124,0.118,0.329,0.061,0.374-0.104l1.293-4.74c0.052-0.191,0.308-0.227,0.411-0.057l2.58,4.279
				c0.087,0.145,0.298,0.145,0.386,0l2.575-4.278c0.102-0.17,0.358-0.134,0.411,0.057l1.294,4.739
				c0.045,0.165,0.25,0.222,0.373,0.104l3.679-3.517c0.144-0.138,0.383-0.034,0.381,0.166l-0.061,4.866
				c-0.002,0.173,0.184,0.284,0.335,0.2l4.514-2.5c0.177-0.098,0.383,0.069,0.325,0.262l-1.404,4.659
				c-0.051,0.169,0.103,0.328,0.273,0.283l5.035-1.324c0.199-0.052,0.358,0.166,0.248,0.339l-2.641,4.145
				c-0.096,0.151,0.014,0.349,0.193,0.347l5.208-0.062c0.208-0.002,0.308,0.253,0.154,0.393l-3.699,3.356
				c-0.134,0.122-0.077,0.344,0.1,0.386l5.031,1.194c0.203,0.048,0.237,0.323,0.052,0.419l-4.893,2.552h15.122
				c-1.103-4.372-2.402-8.321-3.789-11.68c-2.811-6.811-8.48-11.387-15.764-12.383c-7.282-0.999-19.715-0.992-26.778,0
				c-7.062,0.985-12.958,5.572-15.766,12.383c-1.383,3.358-2.684,7.308-3.78,11.68h15.403l-4.891-2.552
				C97.67,42.26,97.704,41.985,97.907,41.938z"/>
			<path fill="#EB2227" d="M136.353,44.908c0,7.915-7.133,14.337-15.929,14.337c-8.805,0-15.938-6.423-15.938-14.337
				c0-7.924,7.132-14.346,15.938-14.346C129.219,30.563,136.353,36.984,136.353,44.908z"/>
		</g>
	</g>
	<g display="inline">
		<path fill="#FFFFFF" d="M98.486,66.038v1.653l3.306-0.01v2.569l-3.306,0.01v3.934h-3.622v-9.285c0-0.845,0.685-1.53,1.53-1.53
			h6.55v2.66H98.486z"/>
		<path fill="#FFFFFF" d="M104.834,63.378h3.716v10.815h-3.716V63.378z"/>
		<path fill="#FFFFFF" d="M110.962,63.378h2.76l4.589,5.246v-5.246h3.457v10.815h-2.761l-4.588-5.246v5.246h-3.456V63.378z"/>
		<path fill="#FFFFFF" d="M123.451,68.8c0-3.726,1.998-5.573,6.026-5.573c1.067,0,2.005,0.128,2.832,0.386l-0.657,2.695
			c-0.54-0.217-1.159-0.325-1.868-0.325c-2.086,0-2.65,0.563-2.65,2.817c0,2.207,0.556,2.758,2.607,2.758
			c0.887,0,1.606-0.152,2.169-0.459l0.655,2.827c-0.904,0.277-1.926,0.414-3.084,0.414C125.45,74.341,123.451,72.505,123.451,68.8z"
			/>
		<path fill="#FFFFFF" d="M141.513,72.547h-3.38l-0.531,1.646h-3.835l4.276-10.815h3.686l4.247,10.815h-3.93L141.513,72.547z
			 M140.76,70.218l-0.94-2.906l-0.937,2.906H140.76z"/>
	</g>
	<path display="inline" fill="#FFFFFF" d="M120.487,40.024v3.205l6.411-0.02v4.981l-6.411,0.02v7.628h-7.023V37.835
		c0-1.639,1.329-2.968,2.968-2.968h12.7v5.157H120.487z"/>
</g>
<g display="none">
	<g display="inline">
		<path fill="#020202" d="M94.79,30.499c0.347,0.432,0.703,0.857,1.037,1.299c0.778,1.028,1.445,2.126,2.018,3.281
			c0.071,0.143,0.15,0.208,0.32,0.218c1.807,0.104,3.612,0.217,5.417,0.33c1.606,0.101,3.213,0.2,4.818,0.306
			c1.396,0.093,2.792,0.184,4.185,0.294c1.261,0.1,2.52,0.228,3.78,0.337c0.734,0.064,0.886,0.472,0.923,1.002
			c0.031,0.438-0.075,0.86-0.261,1.257c-0.36,0.769-0.915,1.304-1.748,1.57c-4.916,1.567-9.754,3.356-14.563,5.223
			c-0.258,0.1-0.264,0.101-0.254,0.375c0.033,0.933-0.022,1.863-0.069,2.794c0.028,0.928-0.141,1.832-0.328,2.734
			c-0.592,2.86-1.724,5.48-3.501,7.806c-0.963,1.259-2.055,2.393-3.406,3.248c-1.2,0.759-2.49,1.221-3.936,1.124
			c-0.846-0.057-1.635-0.316-2.367-0.734c-1.716-0.979-2.955-2.435-3.97-4.091c-2.116-3.452-3.355-7.22-3.904-11.215
			c-0.397-2.893-0.093-5.72,1.051-8.423c0.604-1.428,1.45-2.7,2.721-3.639c1.119-0.826,2.402-1.164,3.769-1.267
			c1.639-0.124,3.249,0.169,4.87,0.313c0.537,0.047,1.073,0.11,1.668,0.16c-0.33-0.539-0.715-0.954-1.1-1.358
			c-1.576-1.659-3.44-2.905-5.651-3.505c-3.279-0.89-6.392-0.437-9.212,1.524c-1.204,0.837-2.097,1.971-2.8,3.256
			c-1.11,2.027-1.676,4.222-2.021,6.485c-0.157,1.032-0.264,2.067-0.282,3.113c-0.009,0.542-0.069,1.085-0.055,1.629
			c0.061,2.132,0.245,4.25,0.646,6.35c0.474,2.484,1.15,4.908,2.085,7.257c0.905,2.275,2.011,4.451,3.324,6.52
			c0.393,0.619,0.814,1.218,1.229,1.823c0.063,0.092,0.135,0.179,0.12,0.301c0.701,1.002,1.479,1.942,2.295,2.852
			c2.353,2.626,5.035,4.841,8.143,6.524c0.956,0.518,1.939,0.975,2.952,1.37c0.496,0.193,0.669,0.426,0.638,0.961
			c-0.055,0.937-0.414,1.741-1.138,2.358c-0.47,0.401-0.98,0.487-1.576,0.251c-3.093-1.226-5.878-2.952-8.392-5.123
			c-3.677-3.177-6.537-6.989-8.761-11.293c-1.604-3.105-2.793-6.364-3.557-9.776c-0.376-1.678-0.656-3.373-0.841-5.084
			c-0.146-1.349-0.224-2.7-0.228-4.055c-0.003-1.332,0.067-2.662,0.223-3.987c0.217-1.855,0.585-3.677,1.151-5.457
			c0.735-2.308,1.757-4.475,3.228-6.412c1.748-2.302,3.944-4.002,6.698-4.943c0.241-0.082,0.483-0.16,0.725-0.24
			c0.107-0.107,0.248-0.142,0.39-0.175c3.104-0.719,6.102-0.426,8.992,0.939c1.6,0.755,2.952,1.837,4.171,3.102
			C94.594,30.152,94.737,30.295,94.79,30.499z"/>
		<path fill="#F2C322" d="M79.343,68.196c-1.894-2.566-3.422-5.336-4.622-8.289c-1.095-2.691-1.873-5.469-2.351-8.335
			c-0.25-1.502-0.408-3.009-0.473-4.53c-0.052-1.201-0.048-2.4,0.04-3.595c0.193-2.623,0.656-5.191,1.714-7.622
			c0.576-1.324,1.326-2.537,2.357-3.559c1.371-1.361,3.034-2.184,4.911-2.577c3.06-0.64,5.898-0.085,8.537,1.585
			c1.446,0.916,2.65,2.078,3.681,3.434c0.032,0.042,0.06,0.087,0.118,0.174c-0.234,0.015-0.425-0.015-0.617-0.035
			c-1.479-0.147-2.956-0.308-4.438-0.433c-1.065-0.09-2.128-0.023-3.173,0.228c-1.634,0.392-2.876,1.338-3.833,2.693
			c-0.83,1.175-1.386,2.472-1.745,3.858c-0.412,1.59-0.589,3.208-0.523,4.847c0.06,1.489,0.315,2.953,0.656,4.403
			c0.64,2.726,1.609,5.323,3.003,7.757c0.716,1.248,1.541,2.414,2.593,3.406c0.429,0.405,0.89,0.769,1.39,1.083
			c1.739,1.094,3.551,1.223,5.431,0.404c1.284-0.56,2.352-1.42,3.308-2.425c2.109-2.218,3.499-4.84,4.334-7.77
			c0.384-1.348,0.608-2.724,0.753-4.115c0.08,0.381,0.079,0.771,0.094,1.154c0.04,1.12,0.025,2.242-0.059,3.36
			c-0.151,2.008-0.646,3.93-1.425,5.785c-0.409,0.972-0.817,1.945-1.346,2.858c-1.28,2.212-3.059,3.929-5.258,5.218
			c-1.564,0.917-3.244,1.533-5.019,1.893c-0.368,0.075-0.746,0.105-1.121,0.136c-0.465,0.037-0.931,0.063-1.396,0.074
			c-1.207,0.03-2.381-0.193-3.546-0.481C80.651,68.617,80,68.398,79.343,68.196z"/>
		<path fill="#020202" d="M121.381,59.541c0.083-0.033,0.108-0.112,0.15-0.174c1.9-2.789,3.868-5.529,5.921-8.208
			c0.155-0.203,0.298-0.411,0.406-0.645c0.14-0.303,0.32-0.584,0.556-0.825c0.267-0.272,0.579-0.44,0.976-0.418
			c0.425,0.024,0.72,0.225,0.839,0.633c0.177,0.61,0.112,1.209-0.153,1.784c-0.216,0.47-0.518,0.887-0.91,1.22
			c-0.762,0.647-1.354,1.437-1.926,2.242c-1.292,1.818-2.522,3.678-3.702,5.571c-0.235,0.376-0.453,0.762-0.645,1.163
			c-0.178,0.372-0.397,0.719-0.701,1.005c-0.247,0.233-0.527,0.399-0.868,0.46c-0.519,0.093-0.914-0.091-1.202-0.521
			c-0.231-0.344-0.357-0.736-0.483-1.126c-0.341-1.056-0.562-2.143-0.803-3.224c-0.23-1.028-0.512-2.042-0.909-3.02
			c-0.084-0.208-0.082-0.211-0.311-0.145c-0.479,0.139-0.957,0.281-1.434,0.423c-0.241,0.072-0.241,0.074-0.184,0.318
			c0.236,1.015,0.472,2.029,0.711,3.043c0.282,1.197,0.568,2.394,0.844,3.592c0.034,0.148,0.094,0.264,0.197,0.372
			c0.192,0.201,0.357,0.424,0.448,0.693c0.141,0.417,0.071,0.79-0.257,1.095c-0.379,0.354-0.813,0.57-1.331,0.355
			c-0.541-0.226-0.959-0.56-1.059-1.209c-0.094-0.612-0.262-1.212-0.404-1.816c-0.414-1.77-0.831-3.539-1.247-5.308
			c-0.013-0.054-0.038-0.106-0.042-0.161c-0.01-0.167-0.089-0.201-0.241-0.153c-0.37,0.116-0.743,0.221-1.114,0.333
			c-1.761,0.533-3.497,1.138-5.219,1.783c-0.163,0.061-0.283,0.143-0.354,0.313c-0.175,0.419-0.366,0.831-0.55,1.246
			c-0.226,0.513-0.324,1.058-0.407,1.607c-0.019,0.121-0.043,0.24-0.069,0.359c-0.081,0.378-0.301,0.631-0.671,0.757
			c-0.283,0.096-0.569,0.103-0.852,0.022c-0.422-0.121-0.775-0.572-0.709-1.071c0.076-0.564,0.226-1.107,0.396-1.646
			c0.124-0.39,0.27-0.774,0.404-1.16c0.032-0.092,0.093-0.183-0.035-0.257c-0.525-0.305-0.586-0.796-0.526-1.332
			c0.044-0.392,0.239-0.683,0.584-0.876c0.273-0.154,0.562-0.278,0.864-0.336c0.219-0.042,0.318-0.155,0.401-0.34
			c1.198-2.667,2.401-5.333,3.604-8c0.519-1.151,1.035-2.304,1.554-3.456c0.124-0.273,0.266-0.537,0.479-0.755
			c0.142-0.145,0.302-0.261,0.493-0.332c0.538-0.2,0.996-0.029,1.268,0.474c0.139,0.257,0.221,0.536,0.261,0.821
			c0.201,1.429,0.521,2.833,0.876,4.23c0.388,1.525,0.756,3.055,1.133,4.582c0.013,0.054,0.021,0.109,0.037,0.162
			c0.026,0.095,0.078,0.104,0.173,0.074c0.613-0.192,1.229-0.375,1.843-0.562c0.042-0.013,0.092-0.025,0.12-0.056
			c0.226-0.243,0.511-0.293,0.823-0.264c0.138,0.013,0.26-0.051,0.385-0.094c0.332-0.112,0.669-0.156,1.016-0.107
			c0.41,0.057,0.662,0.29,0.756,0.686c0.102,0.427,0.023,0.815-0.241,1.164c-0.063,0.083-0.104,0.144-0.057,0.263
			c0.303,0.77,0.413,1.584,0.544,2.394c0.125,0.767,0.353,1.511,0.499,2.272C121.334,59.489,121.363,59.514,121.381,59.541z"/>
		<path fill="#020202" d="M167.119,79.12c0.199,0.855,0.398,1.717,0.6,2.579c0.323,1.381,0.65,2.761,0.968,4.144
			c0.048,0.21,0.123,0.386,0.276,0.548c0.278,0.296,0.488,0.635,0.462,1.068c-0.005,0.076-0.013,0.155-0.036,0.228
			c-0.188,0.589-0.974,1.018-1.557,0.814c-0.613-0.214-1.028-0.604-1.132-1.301c-0.091-0.612-0.265-1.212-0.406-1.815
			c-0.419-1.791-0.841-3.582-1.263-5.372c-0.053-0.226-0.056-0.227-0.28-0.162c-2.139,0.62-4.251,1.322-6.333,2.112
			c-0.143,0.054-0.245,0.125-0.307,0.273c-0.197,0.47-0.407,0.935-0.611,1.401c-0.248,0.566-0.286,1.182-0.409,1.777
			c-0.108,0.523-0.405,0.795-0.951,0.878c-0.521,0.079-0.942-0.116-1.194-0.537c-0.136-0.228-0.123-0.464-0.087-0.709
			c0.109-0.739,0.355-1.439,0.59-2.144c0.028-0.084,0.056-0.169,0.094-0.249c0.135-0.285,0.199-0.524-0.164-0.724
			c-0.215-0.118-0.275-0.389-0.31-0.639c-0.099-0.716,0.147-1.179,0.796-1.485c0.231-0.109,0.472-0.201,0.721-0.248
			c0.181-0.035,0.256-0.132,0.324-0.284c0.637-1.426,1.28-2.85,1.922-4.273c1.083-2.403,2.167-4.807,3.25-7.211
			c0.133-0.295,0.288-0.575,0.522-0.804c0.162-0.157,0.347-0.271,0.568-0.33c0.477-0.127,0.858,0.018,1.111,0.439
			c0.156,0.26,0.244,0.545,0.288,0.845c0.208,1.405,0.514,2.79,0.857,4.167c0.386,1.548,0.764,3.098,1.146,4.647
			c0.011,0.044,0.036,0.085,0.038,0.128c0.008,0.207,0.109,0.188,0.266,0.138c1.035-0.326,2.075-0.638,3.11-0.965
			c0.313-0.099,0.625-0.146,0.95-0.113c0.476,0.049,0.755,0.333,0.832,0.805c0.123,0.753-0.388,1.605-1.354,1.517
			c-0.358-0.033-0.677,0.047-1.005,0.144c-0.68,0.2-1.36,0.399-2.041,0.597C167.284,79.028,167.195,79.04,167.119,79.12z"/>
		<path fill="#D62D2B" d="M94.79,30.499c-0.494-0.509-0.982-1.024-1.515-1.495c-1.875-1.656-4.045-2.692-6.507-3.129
			c-1.055-0.188-2.116-0.237-3.181-0.172c-0.863,0.052-1.717,0.19-2.554,0.42c-0.042,0.012-0.086,0.014-0.13,0.021
			c0.051-1.621-0.025-3.242,0.018-4.862c0.02-0.699,0.075-1.396,0.254-2.077c0.074-0.28,0.17-0.551,0.32-0.8
			c0.49-0.815,1.358-0.932,2.048-0.271c0.267,0.256,0.464,0.565,0.642,0.887c0.278,0.506,0.499,1.039,0.728,1.569
			c0.162,0.377,0.325,0.753,0.521,1.115c0.147,0.274,0.309,0.541,0.541,0.754c0.315,0.29,0.663,0.331,1.04,0.126
			c0.208-0.112,0.383-0.266,0.545-0.435c0.332-0.346,0.613-0.73,0.858-1.142c0.334-0.563,0.66-1.13,1.033-1.67
			c0.297-0.43,0.616-0.843,1.019-1.182c0.232-0.195,0.482-0.36,0.791-0.401c0.676-0.088,1.271,0.435,1.31,1.151
			c0.021,0.404-0.064,0.795-0.17,1.181c-0.165,0.599-0.341,1.194-0.509,1.792c-0.038,0.138-0.067,0.28-0.098,0.421
			c-0.142,0.651,0.029,1.23,0.413,1.757c0.354,0.489,0.797,0.631,1.373,0.453c0.311-0.096,0.59-0.253,0.862-0.426
			c0.47-0.297,0.907-0.639,1.355-0.967c0.537-0.393,1.082-0.774,1.69-1.057c0.624-0.29,1.27-0.387,1.944-0.236
			c0.129,0.029,0.258,0.068,0.379,0.121c0.438,0.191,0.645,0.522,0.623,1c-0.013,0.28-0.09,0.546-0.191,0.806
			c-0.229,0.583-0.556,1.11-0.911,1.621c-0.833,1.197-1.802,2.282-2.797,3.343C95.965,29.321,95.39,29.922,94.79,30.499z"/>
		<path fill="#020202" d="M145.507,59.836c-0.116,0.021-0.207,0.106-0.309,0.168c-1.793,1.092-3.652,2.047-5.657,2.695
			c-1.137,0.368-2.296,0.602-3.5,0.509c-0.999-0.077-1.877-0.42-2.548-1.199c-0.43-0.499-0.635-1.083-0.662-1.736
			c-0.04-0.968,0.221-1.864,0.639-2.723c0.668-1.374,1.628-2.534,2.68-3.624c0.549-0.569,1.146-1.081,1.83-1.486
			c0.757-0.448,1.568-0.66,2.451-0.566c0.123,0.013,0.241,0.042,0.355,0.083c0.375,0.136,0.564,0.411,0.567,0.812
			c0.005,0.69-0.698,1.598-1.369,1.76c-0.208,0.05-0.425,0.048-0.628-0.006c-0.411-0.11-0.764,0.008-1.104,0.222
			c-0.371,0.232-0.687,0.526-0.975,0.852c-0.785,0.887-1.443,1.854-1.873,2.965c-0.169,0.438-0.268,0.889-0.252,1.363
			c0.025,0.762,0.434,1.203,1.2,1.294c0.606,0.073,1.196-0.023,1.778-0.173c1.304-0.335,2.546-0.842,3.733-1.467
			c1.196-0.63,2.364-1.313,3.548-1.965c0.161-0.088,0.231-0.207,0.292-0.373c0.564-1.555,1.331-2.997,2.446-4.234
			c0.343-0.381,0.737-0.708,1.192-0.95c1.065-0.568,2.122-0.556,3.162,0.069c1.179,0.708,1.911,1.748,2.181,3.085
			c0.531,2.628-0.266,4.811-2.29,6.556c-0.783,0.675-1.655,1.187-2.677,1.414c-0.438,0.097-0.881,0.131-1.324,0.089
			c-0.672-0.064-1.217-0.392-1.664-0.885c-0.628-0.692-0.988-1.516-1.17-2.425C145.554,59.918,145.563,59.871,145.507,59.836z"/>
		<path fill="#020202" d="M103.376,71.109c-0.577,0.115-1.109,0.221-1.641,0.328c-1.055,0.213-2.112,0.41-3.179,0.554
			c-0.187,0.025-0.377,0.033-0.565,0.036c-0.639,0.009-1.17-0.442-1.261-1.094c-0.09-0.646,0.14-1.206,0.856-1.418
			c0.213-0.063,0.432-0.091,0.654-0.107c1.694-0.119,3.383-0.287,5.032-0.724c0.162-0.043,0.268-0.093,0.321-0.278
			c0.095-0.325,0.352-0.511,0.673-0.579c0.411-0.087,0.822-0.073,1.196,0.145c0.146,0.085,0.273,0.09,0.438,0.061
			c0.974-0.174,1.958-0.265,2.941-0.352c0.995-0.087,1.992-0.171,2.989-0.238c1.872-0.125,3.744-0.268,5.623-0.235
			c0.732,0.013,1.407,0.721,1.403,1.46c-0.001,0.187-0.089,0.318-0.222,0.426c-0.529,0.433-1.118,0.752-1.775,0.952
			c-0.49,0.148-1.033-0.271-0.913-0.818c-0.119,0-0.236-0.005-0.352,0.001c-1.497,0.078-2.996,0.122-4.49,0.249
			c-1.628,0.138-3.235,0.395-4.794,0.907c-0.205,0.067-0.305,0.152-0.319,0.383c-0.088,1.341-0.192,2.68-0.289,4.02
			c-0.101,1.407-0.17,2.815-0.187,4.226c-0.017,1.499-0.015,2.999-0.002,4.498c0.005,0.486,0.043,0.971,0.235,1.437
			c0.105,0.257,0.056,0.549-0.009,0.821c-0.083,0.354-0.262,0.66-0.498,0.93c-0.474,0.542-1.133,0.532-1.712,0.146
			c-0.112-0.075-0.136-0.194-0.159-0.316c-0.076-0.394-0.105-0.794-0.121-1.192c-0.115-2.897-0.093-5.796-0.049-8.694
			c0.013-0.81,0.083-1.618,0.135-2.427C103.403,73.194,103.374,72.174,103.376,71.109z"/>
		<path fill="#020202" d="M126.443,86.712c-0.044,0.541-0.097,1.07-0.128,1.601c-0.094,1.585-0.152,3.172-0.16,4.761
			c-0.004,0.933-0.011,1.864,0.012,2.797c0.008,0.334,0.04,0.656,0.171,0.975c0.153,0.373,0.106,0.765-0.041,1.137
			c-0.104,0.266-0.309,0.426-0.589,0.489c-0.846,0.193-1.663-0.418-1.735-1.304c-0.021-0.256-0.022-0.515,0.089-0.753
			c0.082-0.174,0.049-0.351,0.035-0.523c-0.098-1.207-0.14-2.417-0.175-3.626c-0.036-1.244,0.012-2.487,0.078-3.729
			c0.07-1.308,0.179-2.613,0.311-3.917c0.11-1.093,0.237-2.185,0.368-3.275c0.134-1.112,0.284-2.223,0.426-3.334
			c0.026-0.198,0.047-0.397,0.079-0.595c0.016-0.103-0.016-0.162-0.104-0.218c-0.112-0.07-0.22-0.152-0.315-0.243
			c-0.349-0.336-0.401-0.765-0.15-1.18c0.141-0.232,0.342-0.406,0.562-0.561c0.719-0.508,1.533-0.671,2.377-0.519
			c2.184,0.393,3.804,1.564,4.764,3.592c0.206,0.435,0.307,0.901,0.376,1.375c0.105,0.724-0.109,1.381-0.442,2.011
			c-0.423,0.799-0.967,1.514-1.561,2.191c-0.867,0.988-1.827,1.876-2.882,2.661c-0.299,0.223-0.62,0.341-0.994,0.278
			C126.696,86.783,126.581,86.746,126.443,86.712z"/>
		<path fill="#020202" d="M144.131,74.848c0.954,0,1.814,0.126,2.614,0.535c0.43,0.221,0.518,0.428,0.377,0.892
			c-0.104,0.347-0.298,0.644-0.522,0.92c-0.669,0.825-1.447,1.53-2.338,2.112c-0.812,0.53-1.724,0.799-2.651,1.028
			c-0.818,0.201-1.646,0.359-2.479,0.489c-0.351,0.056-0.359,0.061-0.354,0.416c0.014,1.052,0.429,1.939,1.158,2.678
			c0.494,0.5,1.113,0.611,1.786,0.459c0.489-0.111,0.949-0.305,1.392-0.536c1.271-0.665,2.454-1.47,3.59-2.344
			c0.292-0.224,0.548-0.479,0.731-0.808c0.135-0.243,0.315-0.455,0.536-0.631c0.282-0.225,0.59-0.253,0.904-0.1
			c0.822,0.402,0.939,1.151,0.59,1.812c-0.1,0.188-0.24,0.348-0.41,0.476c-1.055,0.795-2.079,1.631-3.186,2.354
			c-0.986,0.643-1.999,1.232-3.114,1.63c-0.504,0.18-1.019,0.31-1.552,0.354c-0.864,0.071-1.673-0.133-2.342-0.677
			c-1.725-1.401-2.622-3.191-2.345-5.453c0.153-1.249,0.779-2.278,1.685-3.132c1.279-1.206,2.766-2.022,4.51-2.343
			C143.203,74.889,143.7,74.86,144.131,74.848z"/>
		<path fill="#020202" d="M165.291,58.14c0.094-0.425,0.138-0.841,0.122-1.261c-0.036-0.945-0.274-1.839-0.719-2.673
			c-0.44-0.827-1.19-1.113-2.08-0.81c-0.201,0.068-0.387,0.164-0.567,0.273c-0.146,0.088-0.262,0.187-0.303,0.372
			c-0.037,0.173-0.173,0.273-0.351,0.317c-0.328,0.082-0.642,0.035-0.938-0.11c-0.245-0.121-0.376-0.341-0.423-0.605
			c-0.087-0.49,0.028-0.923,0.378-1.288c0.249-0.259,0.536-0.464,0.855-0.626c0.833-0.423,1.722-0.575,2.646-0.503
			c1.101,0.085,1.886,0.716,2.535,1.546c0.58,0.742,0.885,1.606,1.042,2.525c0.279,1.635,0.115,3.252-0.229,4.857
			c-0.163,0.758-0.357,1.509-0.627,2.238c-0.03,0.083-0.06,0.167-0.093,0.249c-0.115,0.285-0.246,0.55-0.609,0.578
			c-0.399,0.03-0.751-0.055-1.005-0.391c-0.052-0.07-0.096-0.146-0.152-0.232c-0.251,0.126-0.496,0.253-0.743,0.373
			c-0.602,0.29-1.225,0.516-1.89,0.608c-0.375,0.052-0.751,0.065-1.126-0.013c-1-0.211-1.694-0.999-1.788-2.015
			c-0.071-0.772,0.068-1.504,0.411-2.194c0.42-0.848,0.992-1.577,1.758-2.139c0.398-0.292,0.842-0.48,1.336-0.557
			c0.792-0.124,1.439,0.133,1.977,0.708C164.927,57.601,165.093,57.876,165.291,58.14z"/>
		<path fill="#020202" d="M111.988,79.638c0.429-0.508,0.851-1.021,1.288-1.521c0.878-1.003,1.787-1.978,2.865-2.773
			c0.54-0.398,1.118-0.723,1.79-0.839c0.637-0.11,1.262-0.045,1.867,0.175c0.375,0.137,0.691,0.751,0.658,1.22
			c-0.028,0.384-0.338,0.71-0.795,0.836c-0.266,0.073-0.533,0.067-0.783-0.043c-0.489-0.218-0.908-0.108-1.338,0.179
			c-0.856,0.573-1.597,1.27-2.279,2.033c-1.045,1.17-1.946,2.448-2.794,3.764c-0.351,0.544-0.478,1.164-0.562,1.794
			c-0.067,0.506-0.112,1.014-0.206,1.516c-0.076,0.405-0.249,0.739-0.656,0.892c-0.772,0.29-1.881-0.189-1.877-1.228
			c0.003-0.492,0.075-0.973,0.16-1.453c0.284-1.611,0.43-3.233,0.379-4.869c-0.036-1.124-0.147-2.245-0.551-3.3
			c-0.298-0.779,0.186-1.251,0.778-1.398c0.705-0.176,1.401,0.077,1.662,0.881c0.223,0.685,0.284,1.39,0.304,2.099
			c0.02,0.673,0.004,1.347,0.004,2.021C111.931,79.626,111.959,79.632,111.988,79.638z"/>
		<path fill="#020202" d="M137.063,68.364c-0.05,0.922-0.211,1.875-0.328,2.833c-0.137,1.124-0.293,2.244-0.434,3.367
			c-0.125,1.002-0.262,2.002-0.363,3.007c-0.126,1.248-0.234,2.498-0.302,3.75c-0.069,1.275-0.097,2.552-0.05,3.829
			c0.013,0.333,0.04,0.665,0.043,0.998c0.004,0.473-0.103,0.925-0.313,1.349c-0.374,0.757-1.254,0.872-1.804,0.23
			c-0.175-0.203-0.181-0.472-0.209-0.724c-0.074-0.663-0.082-1.33-0.058-1.996c0.048-1.331,0.115-2.662,0.23-3.989
			c0.099-1.14,0.189-2.278,0.297-3.417c0.114-1.193,0.242-2.385,0.367-3.577c0.099-0.938,0.155-1.88,0.231-2.82
			c0.101-1.239,0.132-2.483,0.326-3.714c0.019-0.12,0.043-0.24,0.071-0.358c0.13-0.535,0.52-0.852,1.067-0.872
			c0.522-0.019,0.972,0.3,1.13,0.807c0.033,0.105,0.053,0.215,0.068,0.324C137.077,67.699,137.091,68.01,137.063,68.364z"/>
		<path fill="#020202" d="M155.615,61.46c0.056-1.716,0.188-3.409,0.327-5.102c0.159-1.925,0.378-3.844,0.566-5.766
			c0.165-1.691,0.256-3.387,0.393-5.08c0.045-0.563,0.113-1.124,0.226-1.681c0.132-0.65,0.873-0.971,1.388-0.82
			c0.456,0.134,0.733,0.442,0.841,0.898c0.114,0.482,0.096,0.974,0.049,1.459c-0.073,0.751-0.178,1.499-0.272,2.247
			c-0.146,1.156-0.296,2.311-0.442,3.467c-0.123,0.969-0.25,1.937-0.359,2.907c-0.134,1.191-0.235,2.386-0.309,3.583
			c-0.059,0.964-0.097,1.93-0.094,2.896c0.002,0.732,0.023,1.465,0.049,2.198c0.018,0.53-0.055,1.039-0.283,1.521
			c-0.066,0.142-0.142,0.277-0.25,0.391c-0.242,0.254-0.53,0.349-0.876,0.259c-0.588-0.154-0.803-0.382-0.887-0.967
			C155.565,63.064,155.618,62.253,155.615,61.46z"/>
		<path fill="#020202" d="M120.672,80.5c0.056-1.353,0.112-2.706,0.165-4.059c0.016-0.405,0.104-0.791,0.281-1.154
			c0.284-0.584,0.827-0.691,1.341-0.419c0.488,0.259,0.738,0.687,0.777,1.236c0.024,0.346-0.047,0.687-0.078,1.028
			c-0.138,1.514-0.29,3.026-0.436,4.539c-0.029,0.299-0.056,0.597-0.081,0.896c-0.055,0.65,0.042,1.283,0.233,1.903
			c0.179,0.581,0.088,1.098-0.348,1.534c-0.563,0.564-1.442,0.391-1.752-0.343c-0.104-0.248-0.161-0.511-0.186-0.773
			c-0.052-0.552-0.094-1.104-0.058-1.662c0.059-0.908,0.092-1.817,0.136-2.727C120.67,80.5,120.671,80.5,120.672,80.5z"/>
		<path fill="#020202" d="M130.232,57.213c0.047-1.286,0.096-2.573,0.143-3.859c0.016-0.424,0.075-0.839,0.249-1.231
			c0.319-0.718,1.022-0.884,1.627-0.377c0.382,0.32,0.563,0.738,0.533,1.235c-0.026,0.42-0.072,0.84-0.111,1.26
			c-0.125,1.348-0.252,2.695-0.377,4.042c-0.024,0.265-0.029,0.533-0.074,0.795c-0.125,0.744,0.016,1.458,0.215,2.167
			c0.089,0.318,0.101,0.633-0.006,0.948c-0.091,0.271-0.259,0.49-0.486,0.66c-0.541,0.404-1.28,0.224-1.576-0.386
			c-0.188-0.387-0.233-0.809-0.262-1.229c-0.048-0.698-0.019-1.397,0.021-2.096c0.036-0.643,0.064-1.286,0.096-1.929
			C130.227,57.213,130.229,57.213,130.232,57.213z"/>
		<path fill="#020202" d="M129.964,47.1c0.013-0.509,0.122-0.916,0.239-1.319c0.157-0.542,0.355-1.069,0.564-1.593
			c0.104-0.258,0.231-0.503,0.42-0.71c0.27-0.295,0.603-0.42,0.988-0.287c0.39,0.135,0.601,0.436,0.66,0.84
			c0.035,0.236-0.016,0.464-0.105,0.681c-0.173,0.419-0.346,0.837-0.529,1.251c-0.162,0.367-0.282,0.744-0.315,1.146
			c-0.003,0.044-0.015,0.087-0.019,0.132c-0.057,0.675-0.482,0.944-1.105,0.909c-0.352-0.02-0.609-0.206-0.712-0.544
			C129.992,47.415,129.953,47.218,129.964,47.1z"/>
		<path fill="#020202" d="M120.413,70.258c0.006-0.347,0.087-0.682,0.18-1.011c0.176-0.628,0.398-1.241,0.645-1.845
			c0.083-0.206,0.189-0.4,0.33-0.573c0.313-0.384,0.748-0.508,1.151-0.326c0.401,0.181,0.659,0.686,0.558,1.135
			c-0.048,0.214-0.125,0.424-0.207,0.628c-0.105,0.267-0.221,0.53-0.345,0.79c-0.232,0.484-0.365,0.992-0.421,1.526
			c-0.072,0.687-0.789,1.068-1.415,0.769c-0.281-0.134-0.387-0.383-0.441-0.663C120.421,70.548,120.424,70.401,120.413,70.258z"/>
		<path fill="#D62D2B" d="M97.497,48.213c0.012,1.989-0.262,3.936-0.92,5.819c-0.626,1.794-1.623,3.35-3.024,4.638
			c-0.528,0.486-1.121,0.877-1.826,1.056c-0.851,0.215-1.675,0.113-2.463-0.266c-0.883-0.425-1.628-1.021-2.272-1.762
			c-1.546-1.777-2.602-3.826-3.418-6.016c-0.695-1.866-1.209-3.78-1.5-5.75c-0.153-1.034-0.234-2.08-0.136-3.121
			c0.094-0.994,0.312-1.967,0.646-2.915c0.327-0.925,0.991-1.41,1.915-1.602c0.779-0.163,1.563-0.178,2.352-0.1
			c0.784,0.077,1.568,0.147,2.352,0.225c1.049,0.104,2.097,0.213,3.145,0.314c0.574,0.055,1.149,0.101,1.725,0.146
			c0.42,0.034,0.841,0.065,1.262,0.086c0.214,0.011,0.328,0.1,0.41,0.307c0.53,1.333,0.961,2.694,1.252,4.098
			c0.054,0.257,0.055,0.262-0.188,0.364c-1.32,0.551-2.628,1.133-3.915,1.76c-0.918,0.447-1.834,0.901-2.71,1.425
			c-0.925,0.553-1.397,1.396-1.463,2.469c-0.009,0.135,0.015,0.265,0.051,0.394c0.159,0.584,0.669,0.852,1.241,0.646
			c0.114-0.041,0.225-0.096,0.331-0.156c2.183-1.221,4.452-2.257,6.76-3.213c0.412-0.17,0.396-0.157,0.396,0.255
			C97.497,47.614,97.497,47.914,97.497,48.213z"/>
		<path fill="#235EA2" d="M106.905,39.814c-2.164,0.824-4.328,1.647-6.492,2.471c-0.011,0.004-0.021,0.007-0.031,0.011
			c-0.235,0.083-0.232,0.082-0.275-0.148c-0.079-0.424-0.155-0.85-0.246-1.272c-0.097-0.443-0.207-0.884-0.315-1.325
			c-0.021-0.086-0.05-0.169-0.031-0.303c2.42,0.148,4.84,0.296,7.259,0.444C106.807,39.742,106.944,39.683,106.905,39.814z"/>
		<path fill="#224B7C" d="M106.905,39.814c-0.044-0.041-0.089-0.082-0.133-0.123c0.109,0,0.219,0,0.354,0
			C107.063,39.782,106.997,39.819,106.905,39.814z"/>
		<path fill="#FFFFFF" d="M108.253,55.75c1.02-2.494,2.173-4.866,3.465-7.26c0.185,0.611,0.354,1.145,0.507,1.683
			c0.384,1.353,0.73,2.715,1.053,4.084c0.058,0.247,0.059,0.253-0.142,0.314C111.547,55.054,109.923,55.399,108.253,55.75z"/>
		<path fill="#FFFFFF" d="M159.437,78.977c1.002-2.445,2.16-4.817,3.416-7.152c0.084,0.059,0.09,0.146,0.115,0.225
			c0.572,1.816,1.049,3.658,1.481,5.512c0.052,0.222,0.052,0.228-0.167,0.293c-1.061,0.316-2.135,0.579-3.216,0.818
			c-0.475,0.105-0.952,0.204-1.428,0.306C159.573,78.992,159.509,79.022,159.437,78.977z"/>
		<path fill="#FFFFFF" d="M152.715,56.495c0.003,0.511-0.167,1.069-0.358,1.627c-0.395,1.161-1.163,1.995-2.214,2.591
			c-0.281,0.16-0.577,0.279-0.896,0.34c-0.394,0.076-0.72-0.039-0.983-0.342c-0.215-0.249-0.342-0.542-0.427-0.854
			c-0.206-0.759-0.196-1.504,0.101-2.248c0.352-0.88,0.765-1.72,1.404-2.431c0.49-0.545,1.071-0.954,1.773-1.19
			c0.187-0.063,0.345-0.05,0.506,0.044c0.255,0.149,0.45,0.358,0.603,0.607C152.558,55.183,152.717,55.774,152.715,56.495z"/>
		<path fill="#FFFFFF" d="M127.835,77.066c0.695,0.165,1.225,0.533,1.658,1.043c0.346,0.408,0.639,0.852,0.767,1.384
			c0.05,0.209,0.049,0.411-0.003,0.623c-0.265,1.075-0.828,1.977-1.601,2.754c-0.535,0.537-1.143,0.982-1.794,1.369
			c-0.037,0.021-0.08,0.034-0.155,0.067C127.022,81.867,127.358,79.46,127.835,77.066z"/>
		<path fill="#FFFFFF" d="M139.958,78.661c1.159-1.06,2.513-1.657,4.093-1.724c-1.094,1.133-2.527,1.518-4.001,1.815
			C139.966,78.777,139.947,78.735,139.958,78.661z"/>
		<path fill="#DBD9D9" d="M139.958,78.661c0.031,0.031,0.062,0.062,0.092,0.092c-0.018,0.012-0.033,0.03-0.053,0.036
			c-0.052,0.016-0.136,0.043-0.151-0.001C139.822,78.72,139.899,78.687,139.958,78.661z"/>
		<path fill="#FFFFFF" d="M161.225,61.019c0.019-0.942,0.768-1.899,1.655-2.15c0.256-0.073,0.428-0.005,0.583,0.184
			c0.134,0.165,0.241,0.345,0.329,0.536c0.105,0.231,0.201,0.466,0.307,0.697c0.047,0.103,0.058,0.175-0.053,0.251
			c-0.539,0.37-1.075,0.741-1.696,0.964c-0.167,0.06-0.335,0.111-0.515,0.12C161.371,61.643,161.215,61.491,161.225,61.019z"/>
		<path fill="#FFFFFF" d="M87.092,45.753c-1.17,0.043-2.56-0.887-2.558-2.557c0.001-1.522,1.237-2.541,2.547-2.54
			c1.409,0.002,2.552,1.129,2.557,2.529C89.643,44.617,88.519,45.751,87.092,45.753z"/>
	</g>
	<g display="inline">
		<defs>
			<path id="SVGID_1_" d="M108.244,55.741c1.02-2.494,2.173-4.866,3.465-7.26c0.185,0.611,0.354,1.145,0.507,1.683
				c0.384,1.353,0.73,2.716,1.053,4.084c0.058,0.247,0.059,0.253-0.142,0.313C111.537,55.044,109.914,55.39,108.244,55.741z
				 M140.041,78.743c1.474-0.298,2.907-0.683,4.001-1.815c-1.58,0.066-2.934,0.664-4.093,1.725
				C139.937,78.726,139.957,78.768,140.041,78.743z"/>
		</defs>
		<clipPath id="SVGID_2_">
			<use xlink:href="#SVGID_1_"  overflow="visible"/>
		</clipPath>
	</g>
</g>
<g display="none">
	<g display="inline">
		<path fill="#6E7273" d="M76.757,91.37c-0.223,0.102-0.478,0.192-0.766,0.273s-0.587,0.148-0.895,0.204
			c-0.309,0.056-0.612,0.099-0.91,0.129c-0.299,0.03-0.569,0.046-0.813,0.046c-0.869,0-1.625-0.134-2.267-0.402
			c-0.643-0.268-1.177-0.645-1.601-1.13c-0.425-0.485-0.741-1.069-0.948-1.752s-0.311-1.438-0.311-2.268
			c0-1.719,0.409-3.036,1.229-3.951c0.818-0.915,2.118-1.373,3.897-1.373c0.536,0,1.067,0.03,1.593,0.092
			c0.526,0.061,1.042,0.191,1.548,0.394l0.075,0.092v0.47c0,0.071-0.03,0.106-0.091,0.106c-0.021,0-0.035,0.002-0.045,0.008
			c-0.011,0.005-0.025,0.002-0.046-0.008c-0.516-0.183-1.011-0.326-1.486-0.433s-0.991-0.159-1.548-0.159
			c-0.788,0-1.463,0.106-2.024,0.318c-0.562,0.213-1.021,0.523-1.38,0.934c-0.359,0.409-0.625,0.909-0.797,1.501
			s-0.258,1.262-0.258,2.01c0,0.708,0.091,1.365,0.273,1.972c0.182,0.607,0.457,1.136,0.826,1.585
			c0.369,0.45,0.834,0.802,1.396,1.055s1.216,0.379,1.964,0.379c0.597,0,1.156-0.073,1.677-0.22s1.059-0.306,1.615-0.478
			c0.021-0.01,0.045-0.016,0.076-0.016c0.03,0,0.053,0.023,0.067,0.068c0.016,0.046,0.025,0.099,0.031,0.159
			c0.005,0.061,0.005,0.119,0,0.175c-0.006,0.056-0.008,0.094-0.008,0.113L76.757,91.37z"/>
		<path fill="#6E7273" d="M85.896,89.793c-0.137,0.454-0.341,0.847-0.614,1.176c-0.272,0.328-0.62,0.586-1.039,0.773
			c-0.42,0.187-0.913,0.28-1.479,0.28c-0.566,0-1.062-0.094-1.486-0.28c-0.425-0.188-0.779-0.445-1.063-0.773
			c-0.283-0.329-0.492-0.722-0.63-1.176c-0.136-0.455-0.204-0.951-0.204-1.487c0-0.565,0.063-1.074,0.189-1.524
			c0.126-0.449,0.326-0.834,0.6-1.152c0.272-0.318,0.621-0.563,1.047-0.735c0.424-0.172,0.935-0.258,1.531-0.258
			s1.107,0.086,1.532,0.258s0.771,0.417,1.039,0.735s0.465,0.705,0.592,1.16c0.126,0.455,0.189,0.961,0.189,1.517
			C86.101,88.842,86.032,89.338,85.896,89.793z M85.327,87.07c-0.102-0.38-0.261-0.711-0.479-0.994
			c-0.217-0.282-0.498-0.503-0.842-0.659c-0.344-0.157-0.758-0.235-1.243-0.235c-0.486,0-0.902,0.078-1.252,0.235
			c-0.349,0.156-0.635,0.374-0.856,0.652c-0.223,0.277-0.387,0.608-0.493,0.993c-0.106,0.384-0.159,0.799-0.159,1.243
			c0,0.425,0.056,0.83,0.167,1.214c0.11,0.385,0.28,0.721,0.508,1.009s0.513,0.519,0.856,0.69s0.749,0.258,1.214,0.258
			s0.869-0.086,1.214-0.258c0.344-0.172,0.627-0.402,0.85-0.69c0.222-0.288,0.387-0.624,0.492-1.009
			c0.106-0.384,0.16-0.789,0.16-1.214h0.015C85.479,87.861,85.428,87.449,85.327,87.07z"/>
		<path fill="#6E7273" d="M92.531,91.734c-0.151,0.101-0.331,0.174-0.538,0.22s-0.401,0.068-0.584,0.068
			c-0.536,0-0.955-0.121-1.259-0.364c-0.304-0.242-0.528-0.551-0.675-0.925c-0.147-0.374-0.238-0.789-0.273-1.244
			s-0.053-0.89-0.053-1.305v-7.66l0.106-0.121h0.394l0.122,0.121c0,1.285-0.003,2.562-0.008,3.83
			c-0.005,1.27-0.008,2.546-0.008,3.83c0,0.294,0.01,0.63,0.03,1.009c0.021,0.38,0.081,0.738,0.183,1.077
			c0.101,0.339,0.263,0.624,0.485,0.856c0.222,0.233,0.541,0.35,0.955,0.35c0.183,0,0.336-0.021,0.463-0.061
			c0.126-0.041,0.23-0.089,0.311-0.145c0.081-0.056,0.146-0.104,0.197-0.145c0.051-0.04,0.086-0.061,0.106-0.061
			c0.081,0.03,0.119,0.112,0.114,0.243c-0.006,0.132-0.008,0.237-0.008,0.318L92.531,91.734z"/>
		<path fill="#6E7273" d="M101.458,89.793c-0.137,0.454-0.341,0.847-0.614,1.176c-0.273,0.328-0.62,0.586-1.039,0.773
			c-0.42,0.187-0.913,0.28-1.479,0.28c-0.566,0-1.063-0.094-1.486-0.28c-0.425-0.188-0.779-0.445-1.063-0.773
			c-0.283-0.329-0.492-0.722-0.63-1.176c-0.136-0.455-0.204-0.951-0.204-1.487c0-0.565,0.063-1.074,0.189-1.524
			c0.126-0.449,0.326-0.834,0.6-1.152c0.272-0.318,0.621-0.563,1.046-0.735s0.936-0.258,1.532-0.258s1.107,0.086,1.532,0.258
			s0.771,0.417,1.039,0.735s0.465,0.705,0.592,1.16c0.126,0.455,0.189,0.961,0.189,1.517
			C101.663,88.842,101.595,89.338,101.458,89.793z M100.889,87.07c-0.101-0.38-0.26-0.711-0.478-0.994
			c-0.217-0.282-0.498-0.503-0.842-0.659c-0.344-0.157-0.758-0.235-1.243-0.235c-0.486,0-0.902,0.078-1.252,0.235
			c-0.349,0.156-0.635,0.374-0.856,0.652c-0.223,0.277-0.387,0.608-0.493,0.993c-0.106,0.384-0.159,0.799-0.159,1.243
			c0,0.425,0.056,0.83,0.167,1.214c0.11,0.385,0.28,0.721,0.508,1.009s0.513,0.519,0.856,0.69s0.749,0.258,1.214,0.258
			s0.869-0.086,1.214-0.258c0.344-0.172,0.627-0.402,0.85-0.69c0.222-0.288,0.387-0.624,0.492-1.009
			c0.106-0.384,0.16-0.789,0.16-1.214h0.015C101.041,87.861,100.99,87.449,100.889,87.07z"/>
		<path fill="#6E7273" d="M114.51,91.932h-0.394l-0.122-0.122v-4.626c0-0.597-0.142-1.074-0.425-1.434
			c-0.282-0.358-0.738-0.538-1.365-0.538c-0.253,0-0.511,0.051-0.773,0.151c-0.263,0.102-0.5,0.243-0.713,0.425
			c-0.212,0.183-0.387,0.393-0.522,0.63c-0.138,0.237-0.205,0.493-0.205,0.766v4.626l-0.122,0.122h-0.394l-0.121-0.122v-4.626
			c0-0.576-0.147-1.049-0.44-1.418s-0.743-0.554-1.351-0.554c-0.263,0-0.525,0.051-0.788,0.151
			c-0.264,0.102-0.501,0.243-0.713,0.425c-0.212,0.183-0.385,0.395-0.516,0.638c-0.132,0.242-0.197,0.5-0.197,0.773v4.61
			l-0.121,0.122h-0.395l-0.121-0.122v-6.946l0.121-0.122h0.333l0.122,0.122l0.045,1.046c0.253-0.384,0.571-0.688,0.956-0.909
			c0.384-0.223,0.809-0.334,1.273-0.334c0.476,0,0.926,0.131,1.351,0.394c0.425,0.264,0.732,0.617,0.926,1.063
			c0.242-0.445,0.568-0.799,0.978-1.063c0.41-0.263,0.872-0.394,1.388-0.394c0.81,0,1.416,0.225,1.82,0.675s0.607,1.064,0.607,1.843
			v4.626L114.51,91.932z"/>
		<path fill="#6E7273" d="M123.521,89.353c-0.162,0.516-0.402,0.971-0.721,1.365s-0.711,0.711-1.176,0.948s-1.001,0.356-1.607,0.356
			c-0.314,0-0.625-0.005-0.933-0.016c-0.309-0.01-0.615-0.035-0.918-0.075c-0.051,0.02-0.121,0.03-0.212,0.03
			c-0.082,0-0.147,0-0.197,0c-0.031,0-0.052-0.016-0.062-0.046s-0.015-0.056-0.015-0.075V80.524l0.106-0.121h0.394l0.122,0.121
			v5.354c0.282-0.424,0.639-0.732,1.069-0.925c0.429-0.192,0.892-0.288,1.388-0.288c1.041,0,1.802,0.256,2.283,0.766
			c0.479,0.511,0.72,1.277,0.72,2.298C123.763,88.296,123.682,88.837,123.521,89.353z M122.572,85.864
			c-0.379-0.435-0.983-0.652-1.813-0.652c-0.264,0-0.539,0.048-0.827,0.145c-0.288,0.096-0.554,0.229-0.796,0.401
			c-0.243,0.172-0.442,0.379-0.6,0.622c-0.156,0.242-0.234,0.511-0.234,0.804v4.202c0.061,0.02,0.172,0.037,0.333,0.053
			c0.162,0.015,0.336,0.025,0.523,0.03s0.361,0.008,0.523,0.008c0.172,0,0.283,0,0.334,0c0.525,0,0.982-0.106,1.373-0.318
			c0.389-0.213,0.712-0.493,0.97-0.842c0.258-0.35,0.453-0.749,0.585-1.198c0.131-0.45,0.197-0.913,0.197-1.389
			C123.142,86.921,122.951,86.299,122.572,85.864z"/>
		<path fill="#6E7273" d="M127.54,83.013h-0.607l-0.121-0.106v-0.592l0.105-0.121h0.607l0.121,0.121v0.592L127.54,83.013z
			 M127.434,91.932h-0.395l-0.137-0.122v-6.946l0.121-0.122h0.395l0.122,0.122v6.946L127.434,91.932z"/>
		<path fill="#6E7273" d="M135.852,91.932h-0.334l-0.121-0.122l-0.03-1.395c-0.253,0.505-0.586,0.899-1.001,1.183
			s-0.91,0.425-1.486,0.425c-0.647,0-1.174-0.199-1.578-0.6c-0.404-0.398-0.606-0.922-0.606-1.569c0-0.404,0.076-0.741,0.228-1.009
			s0.354-0.488,0.606-0.66c0.253-0.172,0.541-0.301,0.865-0.387c0.323-0.086,0.656-0.145,1-0.174
			c0.344-0.03,0.684-0.046,1.017-0.046c0.344,0,0.658,0.005,0.94,0.016v-0.819c0-0.607-0.162-1.019-0.485-1.236
			s-0.764-0.326-1.319-0.326c-0.283,0-0.559,0.04-0.826,0.121c-0.269,0.081-0.506,0.17-0.714,0.266
			c-0.207,0.097-0.379,0.185-0.515,0.266c-0.138,0.081-0.215,0.121-0.236,0.121c-0.04,0-0.067-0.025-0.083-0.076
			c-0.015-0.05-0.025-0.11-0.03-0.182c-0.005-0.07-0.005-0.137,0-0.197s0.008-0.106,0.008-0.137l0.046-0.105
			c0.151-0.102,0.326-0.192,0.522-0.273c0.197-0.081,0.4-0.146,0.607-0.197s0.414-0.088,0.621-0.113
			c0.208-0.025,0.402-0.038,0.585-0.038c0.384,0,0.728,0.03,1.031,0.091c0.303,0.061,0.559,0.172,0.766,0.334
			c0.207,0.161,0.366,0.377,0.478,0.645s0.167,0.614,0.167,1.039v5.035L135.852,91.932z M134.698,88.078c-0.212,0-0.419,0-0.621,0
			c-0.313,0-0.63,0.021-0.948,0.062c-0.318,0.04-0.606,0.126-0.864,0.258c-0.259,0.131-0.471,0.313-0.638,0.546
			s-0.25,0.536-0.25,0.91c0,0.212,0.035,0.417,0.106,0.614c0.07,0.197,0.172,0.369,0.304,0.516c0.131,0.146,0.287,0.266,0.47,0.356
			c0.182,0.091,0.384,0.137,0.606,0.137c0.364,0,0.69-0.071,0.979-0.213s0.533-0.333,0.735-0.576
			c0.203-0.242,0.364-0.519,0.485-0.826c0.122-0.309,0.197-0.63,0.228-0.964c0.01-0.131,0.018-0.263,0.023-0.395
			c0.005-0.131,0.007-0.263,0.007-0.394h0.016C135.124,88.089,134.911,88.078,134.698,88.078z"/>
		<path fill="#6E7273" d="M148.744,91.052c-0.142,0.232-0.328,0.422-0.561,0.568c-0.233,0.147-0.494,0.25-0.782,0.312
			c-0.288,0.061-0.578,0.091-0.871,0.091c-0.294,0-0.617-0.028-0.972-0.084c-0.354-0.055-0.667-0.139-0.94-0.25l-0.075-0.091v-0.501
			c0-0.08,0.035-0.121,0.105-0.121c0.192,0.071,0.354,0.137,0.485,0.197c0.132,0.061,0.261,0.114,0.387,0.159
			c0.127,0.046,0.269,0.081,0.425,0.106c0.157,0.025,0.361,0.038,0.614,0.038c0.202,0,0.41-0.023,0.622-0.068
			c0.212-0.046,0.404-0.119,0.576-0.22c0.173-0.102,0.312-0.235,0.418-0.402s0.159-0.371,0.159-0.614
			c0-0.323-0.094-0.584-0.281-0.781c-0.187-0.197-0.42-0.366-0.697-0.508c-0.278-0.142-0.581-0.275-0.91-0.402
			c-0.329-0.126-0.632-0.28-0.91-0.463c-0.278-0.182-0.511-0.406-0.697-0.675c-0.188-0.268-0.281-0.619-0.281-1.054
			c0-0.304,0.063-0.562,0.189-0.773c0.127-0.213,0.291-0.385,0.493-0.516c0.202-0.132,0.433-0.226,0.69-0.281
			s0.518-0.083,0.781-0.083c0.313,0,0.634,0.02,0.963,0.061c0.328,0.04,0.645,0.106,0.948,0.197L148.714,85v0.439
			c0,0.021-0.008,0.045-0.023,0.076c-0.015,0.03-0.032,0.045-0.053,0.045c-0.061,0-0.159-0.021-0.296-0.061
			c-0.136-0.04-0.293-0.083-0.47-0.129s-0.367-0.088-0.569-0.129c-0.202-0.04-0.399-0.061-0.591-0.061
			c-0.182,0-0.364,0.018-0.546,0.053c-0.183,0.036-0.347,0.097-0.493,0.183s-0.266,0.199-0.356,0.341s-0.137,0.318-0.137,0.531
			c0,0.333,0.094,0.602,0.28,0.804c0.188,0.202,0.42,0.377,0.698,0.523c0.277,0.146,0.581,0.285,0.91,0.417
			c0.328,0.132,0.632,0.286,0.91,0.463c0.277,0.177,0.51,0.399,0.697,0.667c0.188,0.269,0.28,0.614,0.28,1.039
			C148.956,90.536,148.886,90.819,148.744,91.052z"/>
		<path fill="#6E7273" d="M152.84,92.022h-0.698l-0.137-0.121v-0.729l0.122-0.121h0.697l0.137,0.121v0.729L152.84,92.022z"/>
		<path fill="#6E7273" d="M161.167,91.932h-0.334l-0.121-0.122l-0.03-1.395c-0.253,0.505-0.587,0.899-1.001,1.183
			c-0.415,0.283-0.91,0.425-1.486,0.425c-0.647,0-1.174-0.199-1.578-0.6c-0.404-0.398-0.606-0.922-0.606-1.569
			c0-0.404,0.075-0.741,0.228-1.009c0.151-0.268,0.354-0.488,0.606-0.66s0.541-0.301,0.865-0.387c0.323-0.086,0.656-0.145,1-0.174
			c0.344-0.03,0.684-0.046,1.017-0.046c0.344,0,0.657,0.005,0.94,0.016v-0.819c0-0.607-0.162-1.019-0.485-1.236
			c-0.324-0.218-0.764-0.326-1.319-0.326c-0.283,0-0.56,0.04-0.827,0.121s-0.505,0.17-0.713,0.266
			c-0.207,0.097-0.379,0.185-0.516,0.266s-0.215,0.121-0.235,0.121c-0.04,0-0.067-0.025-0.083-0.076
			c-0.016-0.05-0.025-0.11-0.03-0.182c-0.005-0.07-0.005-0.137,0-0.197s0.007-0.106,0.007-0.137l0.047-0.105
			c0.15-0.102,0.325-0.192,0.522-0.273s0.399-0.146,0.607-0.197c0.206-0.051,0.414-0.088,0.621-0.113
			c0.208-0.025,0.402-0.038,0.584-0.038c0.385,0,0.729,0.03,1.032,0.091c0.303,0.061,0.559,0.172,0.766,0.334
			c0.207,0.161,0.366,0.377,0.478,0.645s0.167,0.614,0.167,1.039v5.035L161.167,91.932z M160.014,88.078c-0.212,0-0.419,0-0.621,0
			c-0.314,0-0.63,0.021-0.948,0.062c-0.318,0.04-0.607,0.126-0.865,0.258c-0.258,0.131-0.47,0.313-0.637,0.546
			s-0.25,0.536-0.25,0.91c0,0.212,0.035,0.417,0.106,0.614c0.07,0.197,0.171,0.369,0.303,0.516s0.288,0.266,0.47,0.356
			c0.183,0.091,0.385,0.137,0.607,0.137c0.364,0,0.689-0.071,0.979-0.213c0.288-0.142,0.533-0.333,0.735-0.576
			c0.202-0.242,0.364-0.519,0.485-0.826c0.122-0.309,0.197-0.63,0.228-0.964c0.01-0.131,0.018-0.263,0.022-0.395
			c0.006-0.131,0.008-0.263,0.008-0.394h0.016C160.438,88.089,160.227,88.078,160.014,88.078z"/>
		<path fill="#6E7273" d="M165.171,92.022h-0.697l-0.137-0.121v-0.729l0.121-0.121h0.698l0.136,0.121v0.729L165.171,92.022z"/>
		<path fill="#6E7273" d="M172.543,91.052c-0.143,0.232-0.329,0.422-0.562,0.568c-0.233,0.147-0.493,0.25-0.781,0.312
			c-0.288,0.061-0.579,0.091-0.872,0.091s-0.617-0.028-0.971-0.084c-0.354-0.055-0.668-0.139-0.94-0.25l-0.076-0.091v-0.501
			c0-0.08,0.035-0.121,0.106-0.121c0.192,0.071,0.354,0.137,0.485,0.197s0.261,0.114,0.387,0.159
			c0.127,0.046,0.268,0.081,0.425,0.106s0.362,0.038,0.614,0.038c0.202,0,0.409-0.023,0.622-0.068
			c0.212-0.046,0.404-0.119,0.576-0.22c0.172-0.102,0.311-0.235,0.417-0.402s0.159-0.371,0.159-0.614
			c0-0.323-0.093-0.584-0.28-0.781s-0.42-0.366-0.697-0.508c-0.278-0.142-0.582-0.275-0.91-0.402
			c-0.329-0.126-0.633-0.28-0.91-0.463c-0.279-0.182-0.512-0.406-0.698-0.675c-0.187-0.268-0.28-0.619-0.28-1.054
			c0-0.304,0.063-0.562,0.189-0.773c0.126-0.213,0.291-0.385,0.493-0.516c0.202-0.132,0.432-0.226,0.689-0.281
			s0.519-0.083,0.782-0.083c0.313,0,0.634,0.02,0.963,0.061c0.328,0.04,0.645,0.106,0.947,0.197L172.512,85v0.439
			c0,0.021-0.007,0.045-0.022,0.076c-0.015,0.03-0.033,0.045-0.053,0.045c-0.061,0-0.159-0.021-0.296-0.061
			s-0.294-0.083-0.471-0.129s-0.366-0.088-0.568-0.129c-0.202-0.04-0.399-0.061-0.591-0.061c-0.183,0-0.364,0.018-0.547,0.053
			c-0.182,0.036-0.347,0.097-0.493,0.183s-0.265,0.199-0.355,0.341c-0.092,0.142-0.137,0.318-0.137,0.531
			c0,0.333,0.093,0.602,0.28,0.804s0.42,0.377,0.698,0.523c0.277,0.146,0.581,0.285,0.909,0.417c0.329,0.132,0.632,0.286,0.91,0.463
			s0.511,0.399,0.698,0.667c0.187,0.269,0.28,0.614,0.28,1.039C172.755,90.536,172.685,90.819,172.543,91.052z"/>
	</g>
	<rect x="55.931" y="46.812" display="inline" fill="#E88D26" width="128.639" height="2.554"/>
	<rect x="67.193" y="77.783" display="inline" fill="#818386" width="106.112" height="0.939"/>
	<path display="inline" fill="#95979C" d="M70.96,35.444c-0.313,1.474-0.796,2.753-1.434,3.846c-0.632,1.099-1.419,1.96-2.372,2.604
		c-0.941,0.641-2.05,0.96-3.325,0.96c-1.309,0-2.436-0.307-3.385-0.923c-0.954-0.625-1.751-1.48-2.386-2.57
		c-0.64-1.093-1.113-2.378-1.422-3.846c-0.302-1.468-0.458-3.072-0.458-4.791c0-1.768,0.156-3.369,0.45-4.808
		c0.295-1.432,0.756-2.654,1.386-3.663c0.616-1.003,1.404-1.781,2.365-2.333c0.959-0.551,2.105-0.83,3.428-0.83
		c1.321,0,2.458,0.279,3.423,0.83c0.957,0.552,1.749,1.33,2.374,2.333c0.619,1.008,1.08,2.23,1.376,3.663
		c0.304,1.439,0.45,3.041,0.45,4.808C71.431,32.406,71.272,33.977,70.96,35.444 M70.029,26.534
		c-0.247-1.276-0.636-2.371-1.159-3.302c-0.526-0.923-1.209-1.645-2.039-2.152c-0.838-0.505-1.841-0.762-3.002-0.762
		c-1.182,0-2.189,0.257-3.024,0.762c-0.829,0.507-1.513,1.229-2.042,2.152c-0.524,0.932-0.915,2.026-1.166,3.302
		c-0.25,1.271-0.374,2.671-0.374,4.19c0,1.433,0.127,2.812,0.396,4.126c0.271,1.315,0.678,2.479,1.213,3.479
		c0.545,1.004,1.232,1.805,2.058,2.405c0.825,0.595,1.798,0.895,2.919,0.895c1.13,0,2.106-0.299,2.921-0.895
		c0.822-0.6,1.505-1.4,2.047-2.405c0.541-1,0.946-2.165,1.203-3.479c0.261-1.314,0.389-2.694,0.389-4.126h0.025
		C70.393,29.205,70.271,27.805,70.029,26.534"/>
	<path display="inline" fill="none" stroke="#95979C" stroke-width="0.056" stroke-miterlimit="10" d="M70.96,35.444
		c-0.313,1.474-0.796,2.753-1.434,3.846c-0.632,1.099-1.419,1.96-2.372,2.604c-0.941,0.641-2.05,0.96-3.325,0.96
		c-1.309,0-2.436-0.307-3.385-0.923c-0.954-0.625-1.751-1.48-2.386-2.57c-0.64-1.093-1.113-2.378-1.422-3.846
		c-0.302-1.468-0.458-3.072-0.458-4.791c0-1.768,0.156-3.369,0.45-4.808c0.295-1.432,0.756-2.654,1.386-3.663
		c0.616-1.003,1.404-1.781,2.365-2.333c0.959-0.551,2.105-0.83,3.428-0.83c1.321,0,2.458,0.279,3.423,0.83
		c0.957,0.552,1.749,1.33,2.374,2.333c0.619,1.008,1.08,2.23,1.376,3.663c0.304,1.439,0.45,3.041,0.45,4.808
		C71.431,32.406,71.272,33.977,70.96,35.444z M70.029,26.534c-0.247-1.276-0.636-2.371-1.159-3.302
		c-0.526-0.923-1.209-1.645-2.039-2.152c-0.838-0.505-1.841-0.762-3.002-0.762c-1.182,0-2.189,0.257-3.024,0.762
		c-0.829,0.507-1.513,1.229-2.042,2.152c-0.524,0.932-0.915,2.026-1.166,3.302c-0.25,1.271-0.374,2.671-0.374,4.19
		c0,1.433,0.127,2.812,0.396,4.126c0.271,1.315,0.678,2.479,1.213,3.479c0.545,1.004,1.232,1.805,2.058,2.405
		c0.825,0.595,1.798,0.895,2.919,0.895c1.13,0,2.106-0.299,2.921-0.895c0.822-0.6,1.505-1.4,2.047-2.405
		c0.541-1,0.946-2.165,1.203-3.479c0.261-1.314,0.389-2.694,0.389-4.126h0.025C70.393,29.205,70.271,27.805,70.029,26.534z"/>
	<path display="inline" fill="#95979C" d="M87.067,36.449c-0.41,1.227-1.007,2.313-1.793,3.26c-0.785,0.951-1.734,1.711-2.848,2.284
		c-1.11,0.576-2.383,0.861-3.803,0.861c-0.698,0-1.401-0.043-2.098-0.13c-0.704-0.086-1.388-0.205-2.061-0.353v8.686l-0.302,0.3
		h-0.975l-0.261-0.3V25.17l0.261-0.294h0.975l0.302,0.294v2.518c0.646-1.007,1.464-1.766,2.449-2.291
		c0.99-0.522,2.082-0.785,3.28-0.785c2.572,0,4.464,0.712,5.677,2.133c1.21,1.424,1.817,3.384,1.817,5.88
		C87.689,33.953,87.483,35.225,87.067,36.449 M85.813,29.931c-0.222-0.827-0.581-1.528-1.065-2.118
		c-0.488-0.587-1.104-1.042-1.858-1.368c-0.743-0.321-1.645-0.489-2.694-0.489c-0.922,0-1.738,0.18-2.436,0.528
		c-0.699,0.352-1.292,0.822-1.781,1.423c-0.481,0.601-0.852,1.292-1.103,2.078c-0.252,0.791-0.377,1.605-0.377,2.455v8.466
		c0.649,0.254,1.323,0.41,2.027,0.489c0.696,0.074,1.399,0.11,2.098,0.11c1.22,0,2.301-0.249,3.239-0.748
		c0.938-0.498,1.725-1.166,2.354-2.004c0.64-0.837,1.121-1.784,1.446-2.848c0.328-1.058,0.491-2.155,0.491-3.279
		C86.155,31.656,86.039,30.756,85.813,29.931"/>
	<path display="inline" fill="#95979C" d="M103.575,33.49c-2.151,0.075-4.283,0.147-6.41,0.207
		c-2.121,0.065-4.256,0.094-6.405,0.094c0,1.096,0.124,2.115,0.373,3.055c0.249,0.934,0.64,1.748,1.164,2.429
		c0.522,0.688,1.199,1.232,2.021,1.632c0.827,0.399,1.826,0.599,3.001,0.599c0.673,0,1.328-0.085,1.962-0.263
		c0.643-0.175,1.222-0.367,1.744-0.579c0.523-0.212,0.956-0.404,1.293-0.582c0.339-0.175,0.529-0.262,0.581-0.262
		c0.101,0,0.169,0.065,0.206,0.189c0.035,0.127,0.063,0.26,0.077,0.413c0.008,0.147,0.008,0.297,0,0.451
		c-0.014,0.149-0.021,0.257-0.021,0.334l-0.148,0.263c-0.378,0.221-0.807,0.424-1.296,0.596c-0.485,0.175-0.977,0.322-1.479,0.432
		c-0.499,0.114-0.997,0.203-1.497,0.263c-0.499,0.064-0.973,0.093-1.423,0.093c-1.555,0-2.842-0.239-3.88-0.71
		c-1.036-0.476-1.866-1.138-2.49-1.982c-0.623-0.85-1.072-1.869-1.35-3.058c-0.277-1.183-0.41-2.503-0.41-3.951
		c0-1.253,0.173-2.397,0.524-3.447c0.349-1.051,0.859-1.951,1.536-2.697c0.675-0.753,1.512-1.335,2.504-1.759
		c1.005-0.426,2.151-0.638,3.449-0.638c1.304,0,2.378,0.235,3.244,0.712c0.86,0.473,1.54,1.111,2.04,1.907
		c0.5,0.799,0.857,1.709,1.069,2.737c0.215,1.022,0.316,2.097,0.316,3.222L103.575,33.49z M101.943,29.875
		c-0.214-0.735-0.53-1.398-0.934-1.985c-0.415-0.589-0.94-1.054-1.576-1.406c-0.64-0.348-1.38-0.528-2.231-0.528
		c-0.946,0-1.816,0.168-2.6,0.489c-0.791,0.326-1.467,0.771-2.025,1.329c-0.563,0.565-0.998,1.246-1.308,2.04
		c-0.316,0.802-0.483,1.668-0.51,2.592h1.087c1.75,0,3.491-0.024,5.224-0.058c1.737-0.039,3.48-0.12,5.23-0.243
		C102.274,31.354,102.156,30.614,101.943,29.875"/>
	<path display="inline" fill="#95979C" d="M113.238,26.484c-0.248-0.104-0.525-0.156-0.821-0.168
		c-0.302-0.015-0.564-0.019-0.791-0.019c-0.672,0-1.314,0.124-1.928,0.376c-0.613,0.25-1.15,0.586-1.611,1.008
		c-0.464,0.424-0.83,0.935-1.103,1.518c-0.277,0.588-0.415,1.232-0.415,1.932V42.33l-0.304,0.302h-0.971l-0.298-0.302V25.17
		l0.264-0.294h0.974l0.303,0.294v2.438c0.669-0.926,1.485-1.637,2.45-2.138c0.963-0.498,1.999-0.749,3.128-0.749h0.638
		c0.197,0,0.396,0.031,0.597,0.08l0.263,0.294v1.129L113.238,26.484z"/>
	<path display="inline" fill="#95979C" d="M125.53,42.631h-0.826l-0.303-0.302l-0.073-3.443c-0.624,1.25-1.449,2.223-2.473,2.92
		c-1.026,0.702-2.248,1.048-3.671,1.048c-1.601,0-2.9-0.496-3.896-1.48c-0.998-0.985-1.502-2.276-1.502-3.877
		c0-0.997,0.188-1.83,0.563-2.492c0.377-0.662,0.876-1.199,1.498-1.629c0.628-0.421,1.335-0.743,2.134-0.955
		c0.802-0.213,1.629-0.354,2.479-0.432c0.846-0.073,1.685-0.111,2.51-0.111c0.846,0,1.623,0.015,2.319,0.039v-2.021
		c0-1.502-0.402-2.519-1.196-3.054c-0.799-0.541-1.89-0.806-3.256-0.806c-0.703,0-1.386,0.101-2.042,0.302
		c-0.668,0.197-1.255,0.415-1.767,0.652c-0.513,0.237-0.938,0.456-1.273,0.658c-0.336,0.195-0.529,0.297-0.577,0.297
		c-0.104,0-0.169-0.061-0.209-0.189c-0.039-0.122-0.061-0.272-0.074-0.449c-0.016-0.172-0.016-0.337,0-0.486
		c0.014-0.147,0.02-0.263,0.02-0.336l0.11-0.26c0.379-0.254,0.805-0.476,1.293-0.68c0.488-0.198,0.987-0.359,1.497-0.483
		c0.509-0.121,1.023-0.217,1.537-0.282c0.51-0.064,0.993-0.094,1.443-0.094c0.95,0,1.802,0.074,2.545,0.221
		c0.753,0.155,1.385,0.426,1.894,0.827c0.515,0.403,0.903,0.932,1.182,1.593c0.271,0.662,0.408,1.518,0.408,2.569V42.33
		L125.53,42.631z M122.678,33.119h-1.533c-0.775,0-1.557,0.049-2.342,0.146c-0.787,0.102-1.497,0.313-2.136,0.633
		c-0.639,0.328-1.161,0.777-1.577,1.354c-0.412,0.573-0.618,1.321-0.618,2.245c0,0.524,0.09,1.031,0.264,1.515
		c0.178,0.493,0.424,0.917,0.749,1.276c0.328,0.362,0.714,0.659,1.161,0.881c0.452,0.228,0.951,0.337,1.504,0.337
		c0.895,0,1.699-0.175,2.413-0.526c0.713-0.346,1.319-0.817,1.817-1.423c0.499-0.598,0.898-1.278,1.197-2.04
		c0.302-0.759,0.488-1.558,0.562-2.378c0.027-0.326,0.044-0.651,0.058-0.973c0.014-0.328,0.016-0.652,0.016-0.974h0.042
		C123.729,33.139,123.204,33.119,122.678,33.119"/>
	<path display="inline" fill="#95979C" d="M142.31,42.631h-0.861l-0.301-0.302l-0.076-3.408c-0.598,1.198-1.434,2.152-2.505,2.864
		c-1.077,0.712-2.289,1.068-3.639,1.068c-1.374,0-2.541-0.217-3.503-0.652c-0.959-0.44-1.746-1.055-2.355-1.841
		c-0.615-0.785-1.058-1.719-1.335-2.806c-0.272-1.087-0.413-2.267-0.413-3.542c0-3.12,0.728-5.459,2.173-7.004
		c1.453-1.546,3.749-2.324,6.898-2.324c0.771,0,1.545,0.026,2.322,0.074c0.771,0.05,1.547,0.116,2.324,0.189V14.46l0.295-0.3h0.976
		l0.264,0.3V42.33L142.31,42.631z M138.735,26.13c-0.889-0.065-1.671-0.094-2.343-0.094c-2.626,0-4.535,0.69-5.733,2.076
		c-1.201,1.387-1.801,3.355-1.801,5.902c0,1.026,0.11,1.986,0.322,2.884c0.213,0.901,0.565,1.689,1.048,2.377
		c0.489,0.688,1.118,1.232,1.892,1.632c0.777,0.399,1.721,0.599,2.85,0.599c1.045,0,1.952-0.218,2.716-0.653
		c0.762-0.434,1.386-1.011,1.873-1.705c0.484-0.703,0.845-1.499,1.084-2.396c0.235-0.901,0.354-1.814,0.354-2.737l0.042-7.487
		C140.386,26.322,139.618,26.188,138.735,26.13"/>
	<path display="inline" fill="#95979C" d="M160.165,37.347c-0.338,1.129-0.847,2.092-1.523,2.903
		c-0.672,0.814-1.528,1.453-2.564,1.911c-1.034,0.467-2.253,0.694-3.653,0.694c-1.396,0-2.622-0.227-3.672-0.694
		c-1.048-0.458-1.921-1.096-2.619-1.911c-0.703-0.811-1.219-1.774-1.555-2.903c-0.339-1.119-0.513-2.346-0.513-3.671
		c0-1.396,0.16-2.655,0.476-3.766c0.307-1.114,0.805-2.063,1.478-2.847c0.678-0.787,1.539-1.389,2.587-1.813
		c1.045-0.426,2.307-0.638,3.78-0.638c1.476,0,2.737,0.211,3.787,0.638c1.051,0.424,1.905,1.026,2.563,1.813
		c0.661,0.785,1.15,1.745,1.464,2.868c0.311,1.125,0.467,2.37,0.467,3.745C160.666,35.001,160.495,36.228,160.165,37.347
		 M158.761,30.623c-0.253-0.934-0.649-1.755-1.187-2.452c-0.534-0.703-1.232-1.24-2.074-1.63c-0.852-0.387-1.874-0.584-3.076-0.584
		c-1.198,0-2.229,0.197-3.089,0.584c-0.866,0.39-1.564,0.924-2.12,1.61c-0.546,0.688-0.956,1.51-1.214,2.457
		c-0.264,0.948-0.398,1.973-0.398,3.069c0,1.048,0.142,2.053,0.416,3c0.271,0.948,0.693,1.775,1.254,2.49
		c0.562,0.712,1.266,1.282,2.118,1.706c0.849,0.424,1.847,0.633,2.995,0.633c1.15,0,2.149-0.209,2.998-0.633
		c0.847-0.424,1.547-0.994,2.097-1.706c0.551-0.715,0.959-1.542,1.22-2.49c0.262-0.947,0.396-1.952,0.396-3h0.034
		C159.131,32.58,159.007,31.562,158.761,30.623"/>
	<path display="inline" fill="#95979C" d="M171.981,26.484c-0.248-0.104-0.525-0.156-0.826-0.168
		c-0.296-0.015-0.559-0.019-0.785-0.019c-0.671,0-1.316,0.124-1.933,0.376c-0.609,0.25-1.146,0.586-1.606,1.008
		c-0.464,0.424-0.829,0.935-1.102,1.518c-0.281,0.588-0.417,1.232-0.417,1.932V42.33l-0.302,0.302h-0.973l-0.297-0.302V25.17
		l0.263-0.294h0.973l0.298,0.294v2.438c0.677-0.926,1.49-1.637,2.457-2.138c0.958-0.498,1.999-0.749,3.128-0.749h0.631
		c0.204,0,0.402,0.031,0.598,0.08l0.269,0.294v1.129L171.981,26.484z"/>
	<path display="inline" fill="#95979C" d="M184.27,42.631h-0.823l-0.301-0.302l-0.074-3.443c-0.628,1.25-1.449,2.223-2.477,2.92
		c-1.023,0.702-2.242,1.048-3.667,1.048c-1.601,0-2.903-0.496-3.9-1.48c-0.998-0.985-1.497-2.276-1.497-3.877
		c0-0.997,0.189-1.83,0.558-2.492c0.381-0.662,0.881-1.199,1.502-1.629c0.624-0.421,1.343-0.743,2.137-0.955
		c0.799-0.213,1.627-0.354,2.475-0.432c0.848-0.073,1.683-0.111,2.508-0.111c0.85,0,1.624,0.015,2.321,0.039v-2.021
		c0-1.502-0.398-2.519-1.197-3.054c-0.799-0.541-1.886-0.806-3.261-0.806c-0.695,0-1.377,0.101-2.039,0.302
		c-0.661,0.197-1.249,0.415-1.762,0.652c-0.515,0.237-0.937,0.456-1.275,0.658c-0.334,0.195-0.527,0.297-0.575,0.297
		c-0.106,0-0.175-0.061-0.209-0.189c-0.04-0.122-0.063-0.272-0.074-0.449c-0.016-0.172-0.016-0.337,0-0.486
		c0.011-0.147,0.021-0.263,0.021-0.336l0.108-0.26c0.376-0.254,0.807-0.476,1.294-0.68c0.491-0.198,0.983-0.359,1.497-0.483
		c0.512-0.121,1.025-0.217,1.539-0.282c0.508-0.064,0.992-0.094,1.443-0.094c0.95,0,1.796,0.074,2.544,0.221
		c0.749,0.155,1.386,0.426,1.894,0.827c0.508,0.403,0.903,0.932,1.181,1.593c0.272,0.662,0.411,1.518,0.411,2.569V42.33
		L184.27,42.631z M181.421,33.119h-1.537c-0.772,0-1.553,0.049-2.345,0.146c-0.778,0.102-1.492,0.313-2.135,0.633
		c-0.633,0.328-1.159,0.777-1.569,1.354c-0.412,0.573-0.618,1.321-0.618,2.245c0,0.524,0.088,1.031,0.262,1.515
		c0.178,0.493,0.426,0.917,0.751,1.276c0.322,0.362,0.711,0.659,1.161,0.881c0.45,0.228,0.95,0.337,1.495,0.337
		c0.903,0,1.708-0.175,2.421-0.526c0.71-0.346,1.313-0.817,1.819-1.423c0.496-0.598,0.892-1.278,1.193-2.04
		c0.301-0.759,0.489-1.558,0.563-2.378c0.026-0.326,0.043-0.651,0.059-0.973c0.011-0.328,0.016-0.652,0.016-0.974h0.042
		C182.47,33.139,181.943,33.119,181.421,33.119"/>
	<g display="inline">
		<path fill="none" stroke="#818386" stroke-width="0.1868" stroke-miterlimit="10" d="M81.568,75.96h-0.931l-0.335-0.339
			l-0.084-3.888c-0.709,1.405-1.636,2.51-2.795,3.295c-1.155,0.791-2.54,1.186-4.145,1.186c-1.799,0-3.27-0.558-4.393-1.671
			c-1.129-1.109-1.693-2.568-1.693-4.374c0-1.124,0.212-2.066,0.636-2.812c0.42-0.745,0.988-1.359,1.69-1.838
			c0.704-0.481,1.505-0.841,2.408-1.079c0.907-0.241,1.836-0.402,2.796-0.489c0.952-0.082,1.898-0.124,2.825-0.124
			c0.961,0,1.833,0.012,2.626,0.042v-2.284c0-1.69-0.451-2.838-1.355-3.446c-0.897-0.603-2.125-0.911-3.678-0.911
			c-0.785,0-1.556,0.116-2.303,0.338c-0.751,0.228-1.41,0.475-1.985,0.742c-0.579,0.268-1.058,0.512-1.438,0.742
			c-0.383,0.226-0.599,0.336-0.659,0.336c-0.111,0-0.187-0.068-0.234-0.206c-0.037-0.146-0.066-0.314-0.082-0.511
			c-0.016-0.198-0.016-0.378,0-0.546s0.02-0.299,0.02-0.381l0.127-0.298c0.426-0.282,0.911-0.531,1.459-0.759
			c0.552-0.229,1.111-0.409,1.69-0.549c0.578-0.144,1.156-0.25,1.738-0.322c0.573-0.065,1.119-0.104,1.624-0.104
			c1.07,0,2.031,0.084,2.877,0.258c0.844,0.168,1.554,0.479,2.135,0.93c0.578,0.449,1.02,1.045,1.33,1.793
			c0.31,0.748,0.467,1.715,0.467,2.896v14.036L81.568,75.96z M78.354,65.221h-1.732c-0.878,0-1.758,0.058-2.643,0.169
			c-0.889,0.116-1.688,0.351-2.411,0.723c-0.715,0.364-1.309,0.871-1.772,1.516c-0.465,0.653-0.696,1.497-0.696,2.541
			c0,0.588,0.097,1.162,0.29,1.709c0.203,0.549,0.482,1.028,0.851,1.437c0.364,0.412,0.799,0.742,1.31,0.997
			c0.502,0.251,1.072,0.378,1.688,0.378c1.015,0,1.924-0.195,2.729-0.592c0.801-0.39,1.483-0.929,2.051-1.607
			c0.564-0.677,1.012-1.443,1.348-2.301c0.342-0.861,0.552-1.756,0.64-2.687c0.031-0.363,0.048-0.735,0.065-1.096
			c0.01-0.372,0.019-0.735,0.019-1.101h0.042C79.54,65.252,78.946,65.221,78.354,65.221z"/>
		<path fill="#818386" d="M81.568,75.96h-0.931l-0.335-0.339l-0.084-3.888c-0.709,1.405-1.636,2.51-2.795,3.295
			c-1.155,0.791-2.54,1.186-4.145,1.186c-1.799,0-3.27-0.558-4.393-1.671c-1.129-1.109-1.693-2.568-1.693-4.374
			c0-1.124,0.212-2.066,0.636-2.812c0.42-0.745,0.988-1.359,1.69-1.838c0.704-0.481,1.505-0.841,2.408-1.079
			c0.907-0.241,1.836-0.402,2.796-0.489c0.952-0.082,1.898-0.124,2.825-0.124c0.961,0,1.833,0.012,2.626,0.042v-2.284
			c0-1.69-0.451-2.838-1.355-3.446c-0.897-0.603-2.125-0.911-3.678-0.911c-0.785,0-1.556,0.116-2.303,0.338
			c-0.751,0.228-1.41,0.475-1.985,0.742c-0.579,0.268-1.058,0.512-1.438,0.742c-0.383,0.226-0.599,0.336-0.659,0.336
			c-0.111,0-0.187-0.068-0.234-0.206c-0.037-0.146-0.066-0.314-0.082-0.511c-0.016-0.198-0.016-0.378,0-0.546s0.02-0.299,0.02-0.381
			l0.127-0.298c0.426-0.282,0.911-0.531,1.459-0.759c0.552-0.229,1.111-0.409,1.69-0.549c0.578-0.144,1.156-0.25,1.738-0.322
			c0.573-0.065,1.119-0.104,1.624-0.104c1.07,0,2.031,0.084,2.877,0.258c0.844,0.168,1.554,0.479,2.135,0.93
			c0.578,0.449,1.02,1.045,1.33,1.793c0.31,0.748,0.467,1.715,0.467,2.896v14.036L81.568,75.96z M78.354,65.221h-1.732
			c-0.878,0-1.758,0.058-2.643,0.169c-0.889,0.116-1.688,0.351-2.411,0.723c-0.715,0.364-1.309,0.871-1.772,1.516
			c-0.465,0.653-0.696,1.497-0.696,2.541c0,0.588,0.097,1.162,0.29,1.709c0.203,0.549,0.482,1.028,0.851,1.437
			c0.364,0.412,0.799,0.742,1.31,0.997c0.502,0.251,1.072,0.378,1.688,0.378c1.015,0,1.924-0.195,2.729-0.592
			c0.801-0.39,1.483-0.929,2.051-1.607c0.564-0.677,1.012-1.443,1.348-2.301c0.342-0.861,0.552-1.756,0.64-2.687
			c0.031-0.363,0.048-0.735,0.065-1.096c0.01-0.372,0.019-0.735,0.019-1.101h0.042C79.54,65.252,78.946,65.221,78.354,65.221"/>
		<path fill="none" stroke="#818386" stroke-width="0.1868" stroke-miterlimit="10" d="M98.688,57.065
			c-0.193,0.537-0.455,1.229-0.779,2.087c-0.323,0.867-0.689,1.847-1.1,2.941c-0.411,1.099-0.83,2.233-1.27,3.407
			c-0.436,1.166-0.876,2.321-1.309,3.465c-0.436,1.142-0.841,2.174-1.208,3.107c-0.363,0.928-0.666,1.727-0.903,2.388
			c-0.242,0.661-0.405,1.093-0.488,1.291l-0.299,0.209h-0.63l-0.341-0.209c-0.11-0.283-0.367-0.945-0.762-1.99
			c-0.396-1.039-0.856-2.279-1.396-3.7c-0.532-1.421-1.098-2.934-1.688-4.542c-0.595-1.605-1.138-3.088-1.627-4.439
			c-0.494-1.353-0.904-2.49-1.229-3.406c-0.325-0.916-0.488-1.414-0.488-1.502c0-0.083,0.069-0.143,0.212-0.188
			c0.14-0.043,0.313-0.07,0.506-0.085c0.196-0.016,0.386-0.016,0.551,0c0.17,0.015,0.285,0.021,0.339,0.021l0.342,0.212
			l5.916,16.651c1.071-2.784,2.12-5.555,3.15-8.304c1.024-2.747,2.047-5.53,3.065-8.347l0.296-0.212h1.098
			c0.053,0,0.129,0.02,0.214,0.063c0.083,0.045,0.126,0.104,0.126,0.188C98.987,56.232,98.885,56.529,98.688,57.065z"/>
		<path fill="#818386" d="M98.688,57.065c-0.193,0.537-0.455,1.229-0.779,2.087c-0.323,0.867-0.689,1.847-1.1,2.941
			c-0.411,1.099-0.83,2.233-1.27,3.407c-0.436,1.166-0.876,2.321-1.309,3.465c-0.436,1.142-0.841,2.174-1.208,3.107
			c-0.363,0.928-0.666,1.727-0.903,2.388c-0.242,0.661-0.405,1.093-0.488,1.291l-0.299,0.209h-0.63l-0.341-0.209
			c-0.11-0.283-0.367-0.945-0.762-1.99c-0.396-1.039-0.856-2.279-1.396-3.7c-0.532-1.421-1.098-2.934-1.688-4.542
			c-0.595-1.605-1.138-3.088-1.627-4.439c-0.494-1.353-0.904-2.49-1.229-3.406c-0.325-0.916-0.488-1.414-0.488-1.502
			c0-0.083,0.069-0.143,0.212-0.188c0.14-0.043,0.313-0.07,0.506-0.085c0.196-0.016,0.386-0.016,0.551,0
			c0.17,0.015,0.285,0.021,0.339,0.021l0.342,0.212l5.916,16.651c1.071-2.784,2.12-5.555,3.15-8.304
			c1.024-2.747,2.047-5.53,3.065-8.347l0.296-0.212h1.098c0.053,0,0.129,0.02,0.214,0.063c0.083,0.045,0.126,0.104,0.126,0.188
			C98.987,56.232,98.885,56.529,98.688,57.065"/>
		<polygon fill="none" stroke="#818386" stroke-width="0.0934" stroke-miterlimit="10" points="102.833,75.96 101.737,75.96 
			101.351,75.621 101.351,56.258 101.692,55.922 102.789,55.922 103.125,56.258 103.125,75.621 		"/>
		<polygon fill="#818386" stroke="#818386" stroke-width="0.1868" points="102.833,75.96 101.737,75.96 101.351,75.621 
			101.351,56.258 101.692,55.922 102.789,55.922 103.125,56.258 103.125,75.621 		"/>
		<path fill="#818386" d="M122.574,74.65c-0.447,0.254-0.955,0.477-1.522,0.675c-0.565,0.198-1.142,0.362-1.728,0.486
			c-0.595,0.123-1.181,0.226-1.756,0.294c-0.58,0.072-1.121,0.108-1.627,0.108c-1.667,0-3.085-0.267-4.251-0.807
			c-1.173-0.534-2.113-1.277-2.831-2.237c-0.721-0.961-1.24-2.091-1.566-3.406c-0.324-1.309-0.486-2.738-0.486-4.289
			c0-1.465,0.188-2.802,0.576-4.014c0.373-1.216,0.946-2.258,1.708-3.127c0.76-0.876,1.711-1.548,2.851-2.011
			c1.144-0.466,2.479-0.699,4-0.699c0.925,0,1.931,0.083,3.018,0.252c1.084,0.172,2.081,0.426,2.979,0.762l0.214,0.296v1.308
			c0,0.197-0.082,0.299-0.251,0.299c-0.113,0-0.37-0.071-0.762-0.208c-0.394-0.146-0.87-0.307-1.418-0.489
			c-0.55-0.185-1.156-0.347-1.819-0.485c-0.662-0.145-1.315-0.211-1.961-0.211c-1.271,0-2.362,0.211-3.282,0.63
			c-0.916,0.425-1.68,1.005-2.304,1.737c-0.618,0.729-1.077,1.615-1.375,2.643c-0.291,1.028-0.438,2.137-0.438,3.317
			c0,1.211,0.128,2.378,0.399,3.49c0.269,1.111,0.696,2.09,1.288,2.941c0.589,0.843,1.359,1.515,2.285,2.025
			c0.93,0.508,2.071,0.759,3.427,0.759c0.783,0,1.57-0.097,2.342-0.298c0.777-0.194,1.468-0.411,2.069-0.649
			c0.609-0.242,1.104-0.459,1.482-0.656c0.382-0.199,0.586-0.302,0.615-0.302c0.25,0.118,0.366,0.351,0.335,0.701
			c-0.025,0.353-0.038,0.644-0.038,0.869L122.574,74.65z"/>
		<path fill="none" stroke="#818386" stroke-width="0.1868" stroke-miterlimit="10" d="M122.574,74.65
			c-0.447,0.254-0.955,0.477-1.522,0.675c-0.565,0.198-1.142,0.362-1.728,0.486c-0.595,0.123-1.181,0.226-1.756,0.294
			c-0.58,0.072-1.121,0.108-1.627,0.108c-1.667,0-3.085-0.267-4.251-0.807c-1.173-0.534-2.113-1.277-2.831-2.237
			c-0.721-0.961-1.24-2.091-1.566-3.406c-0.324-1.309-0.486-2.738-0.486-4.289c0-1.465,0.188-2.802,0.576-4.014
			c0.373-1.216,0.946-2.258,1.708-3.127c0.76-0.876,1.711-1.548,2.851-2.011c1.144-0.466,2.479-0.699,4-0.699
			c0.925,0,1.931,0.083,3.018,0.252c1.084,0.172,2.081,0.426,2.979,0.762l0.214,0.296v1.308c0,0.197-0.082,0.299-0.251,0.299
			c-0.113,0-0.37-0.071-0.762-0.208c-0.394-0.146-0.87-0.307-1.418-0.489c-0.55-0.185-1.156-0.347-1.819-0.485
			c-0.662-0.145-1.315-0.211-1.961-0.211c-1.271,0-2.362,0.211-3.282,0.63c-0.916,0.425-1.68,1.005-2.304,1.737
			c-0.618,0.729-1.077,1.615-1.375,2.643c-0.291,1.028-0.438,2.137-0.438,3.317c0,1.211,0.128,2.378,0.399,3.49
			c0.269,1.111,0.696,2.09,1.288,2.941c0.589,0.843,1.359,1.515,2.285,2.025c0.93,0.508,2.071,0.759,3.427,0.759
			c0.783,0,1.57-0.097,2.342-0.298c0.777-0.194,1.468-0.411,2.069-0.649c0.609-0.242,1.104-0.459,1.482-0.656
			c0.382-0.199,0.586-0.302,0.615-0.302c0.25,0.118,0.366,0.351,0.335,0.701c-0.025,0.353-0.038,0.644-0.038,0.869L122.574,74.65z"
			/>
		<path fill="none" stroke="#818386" stroke-width="0.1868" stroke-miterlimit="10" d="M143.31,70.001
			c-0.38,1.266-0.946,2.359-1.708,3.271c-0.765,0.922-1.728,1.636-2.896,2.162c-1.172,0.517-2.546,0.78-4.122,0.78
			c-1.582,0-2.959-0.264-4.147-0.78c-1.181-0.526-2.169-1.24-2.956-2.162c-0.788-0.912-1.373-2.004-1.754-3.271
			c-0.381-1.27-0.572-2.646-0.572-4.148c0-1.573,0.178-2.995,0.528-4.244c0.352-1.256,0.909-2.327,1.671-3.216
			c0.761-0.885,1.732-1.566,2.914-2.053c1.188-0.472,2.613-0.715,4.273-0.715c1.658,0,3.087,0.243,4.268,0.715
			c1.187,0.486,2.152,1.167,2.896,2.053c0.748,0.889,1.296,1.968,1.652,3.236c0.351,1.267,0.525,2.68,0.525,4.224
			C143.882,67.354,143.692,68.731,143.31,70.001z M141.724,62.41c-0.28-1.056-0.719-1.982-1.328-2.768
			c-0.608-0.791-1.388-1.402-2.349-1.838c-0.96-0.439-2.11-0.656-3.464-0.656c-1.355,0-2.516,0.217-3.487,0.656
			c-0.976,0.436-1.773,1.044-2.39,1.818c-0.624,0.771-1.079,1.694-1.375,2.767c-0.294,1.076-0.441,2.231-0.441,3.463
			c0,1.189,0.149,2.316,0.463,3.388c0.311,1.067,0.78,2.007,1.419,2.806c0.63,0.809,1.427,1.452,2.385,1.925
			c0.96,0.484,2.086,0.72,3.384,0.72c1.297,0,2.426-0.235,3.383-0.72c0.953-0.473,1.746-1.116,2.368-1.925
			c0.618-0.799,1.075-1.739,1.374-2.806c0.296-1.071,0.441-2.198,0.441-3.388h0.043C142.149,64.62,142.006,63.468,141.724,62.41z"/>
		<path fill="#818386" d="M143.31,70.001c-0.38,1.266-0.946,2.359-1.708,3.271c-0.765,0.922-1.728,1.636-2.896,2.162
			c-1.172,0.517-2.546,0.78-4.122,0.78c-1.582,0-2.959-0.264-4.147-0.78c-1.181-0.526-2.169-1.24-2.956-2.162
			c-0.788-0.912-1.373-2.004-1.754-3.271c-0.381-1.27-0.572-2.646-0.572-4.148c0-1.573,0.178-2.995,0.528-4.244
			c0.352-1.256,0.909-2.327,1.671-3.216c0.761-0.885,1.732-1.566,2.914-2.053c1.188-0.472,2.613-0.715,4.273-0.715
			c1.658,0,3.087,0.243,4.268,0.715c1.187,0.486,2.152,1.167,2.896,2.053c0.748,0.889,1.296,1.968,1.652,3.236
			c0.351,1.267,0.525,2.68,0.525,4.224C143.882,67.354,143.692,68.731,143.31,70.001 M141.724,62.41
			c-0.28-1.056-0.719-1.982-1.328-2.768c-0.608-0.791-1.388-1.402-2.349-1.838c-0.96-0.439-2.11-0.656-3.464-0.656
			c-1.355,0-2.516,0.217-3.487,0.656c-0.976,0.436-1.773,1.044-2.39,1.818c-0.624,0.771-1.079,1.694-1.375,2.767
			c-0.294,1.076-0.441,2.231-0.441,3.463c0,1.189,0.149,2.316,0.463,3.388c0.311,1.067,0.78,2.007,1.419,2.806
			c0.63,0.809,1.427,1.452,2.385,1.925c0.96,0.484,2.086,0.72,3.384,0.72c1.297,0,2.426-0.235,3.383-0.72
			c0.953-0.473,1.746-1.116,2.368-1.925c0.618-0.799,1.075-1.739,1.374-2.806c0.296-1.071,0.441-2.198,0.441-3.388h0.043
			C142.149,64.62,142.006,63.468,141.724,62.41"/>
		<path fill="none" stroke="#818386" stroke-width="0.1868" stroke-miterlimit="10" d="M156.264,75.407
			c-0.419,0.283-0.92,0.491-1.497,0.616c-0.573,0.125-1.117,0.19-1.627,0.19c-1.492,0-2.661-0.336-3.508-1.012
			c-0.846-0.676-1.472-1.54-1.88-2.58c-0.405-1.044-0.663-2.199-0.765-3.468c-0.097-1.268-0.142-2.479-0.142-3.634V44.168
			l0.289-0.342h1.102l0.337,0.342c0,3.579-0.003,7.137-0.019,10.674s-0.02,7.097-0.02,10.677c0,0.816,0.024,1.755,0.082,2.812
			c0.057,1.051,0.226,2.054,0.505,3c0.281,0.944,0.735,1.739,1.356,2.388c0.617,0.652,1.506,0.972,2.661,0.972
			c0.51,0,0.937-0.053,1.289-0.164c0.354-0.117,0.646-0.249,0.867-0.408c0.227-0.156,0.411-0.289,0.549-0.399
			c0.139-0.108,0.243-0.168,0.295-0.168c0.229,0.084,0.338,0.31,0.322,0.677c-0.016,0.366-0.022,0.661-0.022,0.884L156.264,75.407z"
			/>
		<path fill="#818386" d="M156.264,75.407c-0.419,0.283-0.92,0.491-1.497,0.616c-0.573,0.125-1.117,0.19-1.627,0.19
			c-1.492,0-2.661-0.336-3.508-1.012c-0.846-0.676-1.472-1.54-1.88-2.58c-0.405-1.044-0.663-2.199-0.765-3.468
			c-0.097-1.268-0.142-2.479-0.142-3.634V44.168l0.289-0.342h1.102l0.337,0.342c0,3.579-0.003,7.137-0.019,10.674
			s-0.02,7.097-0.02,10.677c0,0.816,0.024,1.755,0.082,2.812c0.057,1.051,0.226,2.054,0.505,3c0.281,0.944,0.735,1.739,1.356,2.388
			c0.617,0.652,1.506,0.972,2.661,0.972c0.51,0,0.937-0.053,1.289-0.164c0.354-0.117,0.646-0.249,0.867-0.408
			c0.227-0.156,0.411-0.289,0.549-0.399c0.139-0.108,0.243-0.168,0.295-0.168c0.229,0.084,0.338,0.31,0.322,0.677
			c-0.016,0.366-0.022,0.661-0.022,0.884L156.264,75.407z"/>
		<path fill="#818386" d="M172.97,75.96h-0.935l-0.336-0.339l-0.084-3.888c-0.708,1.405-1.636,2.51-2.793,3.295
			c-1.155,0.791-2.534,1.186-4.143,1.186c-1.803,0-3.265-0.558-4.394-1.671c-1.13-1.109-1.693-2.568-1.693-4.374
			c0-1.124,0.217-2.066,0.637-2.812c0.42-0.745,0.982-1.359,1.69-1.838c0.702-0.481,1.508-0.841,2.405-1.079
			c0.907-0.241,1.835-0.402,2.793-0.489c0.955-0.082,1.905-0.124,2.834-0.124c0.957,0,1.829,0.012,2.619,0.042v-2.284
			c0-1.69-0.45-2.838-1.349-3.446c-0.903-0.603-2.132-0.911-3.679-0.911c-0.796,0-1.562,0.116-2.31,0.338
			c-0.743,0.228-1.407,0.475-1.984,0.742c-0.577,0.268-1.054,0.512-1.438,0.742c-0.38,0.226-0.601,0.336-0.653,0.336
			c-0.116,0-0.188-0.068-0.232-0.206c-0.046-0.146-0.073-0.314-0.083-0.511c-0.017-0.198-0.017-0.378,0-0.546
			c0.01-0.168,0.017-0.299,0.017-0.381l0.131-0.298c0.419-0.282,0.904-0.531,1.458-0.759c0.548-0.229,1.113-0.409,1.69-0.549
			c0.579-0.144,1.152-0.25,1.729-0.322c0.579-0.065,1.129-0.104,1.634-0.104c1.071,0,2.027,0.084,2.876,0.258
			c0.845,0.168,1.557,0.479,2.129,0.93c0.583,0.449,1.021,1.045,1.337,1.793c0.31,0.748,0.462,1.715,0.462,2.896v14.036
			L172.97,75.96z M169.756,65.221h-1.732c-0.876,0-1.758,0.058-2.645,0.169c-0.888,0.116-1.69,0.351-2.406,0.723
			c-0.723,0.364-1.313,0.871-1.776,1.516c-0.471,0.653-0.702,1.497-0.702,2.541c0,0.588,0.104,1.162,0.299,1.709
			c0.196,0.549,0.479,1.028,0.845,1.437c0.364,0.412,0.806,0.742,1.313,0.997c0.506,0.251,1.069,0.378,1.688,0.378
			c1.018,0,1.925-0.195,2.726-0.592c0.808-0.39,1.49-0.929,2.052-1.607c0.564-0.677,1.015-1.443,1.354-2.301
			c0.336-0.861,0.549-1.756,0.636-2.687c0.027-0.363,0.046-0.735,0.06-1.096c0.016-0.372,0.028-0.735,0.028-1.101h0.038
			C170.938,65.252,170.346,65.221,169.756,65.221"/>
		<path fill="none" stroke="#818386" stroke-width="0.1868" stroke-miterlimit="10" d="M172.97,75.96h-0.935l-0.336-0.339
			l-0.084-3.888c-0.708,1.405-1.636,2.51-2.793,3.295c-1.155,0.791-2.534,1.186-4.143,1.186c-1.803,0-3.265-0.558-4.394-1.671
			c-1.13-1.109-1.693-2.568-1.693-4.374c0-1.124,0.217-2.066,0.637-2.812c0.42-0.745,0.982-1.359,1.69-1.838
			c0.702-0.481,1.508-0.841,2.405-1.079c0.907-0.241,1.835-0.402,2.793-0.489c0.955-0.082,1.905-0.124,2.834-0.124
			c0.957,0,1.829,0.012,2.619,0.042v-2.284c0-1.69-0.45-2.838-1.349-3.446c-0.903-0.603-2.132-0.911-3.679-0.911
			c-0.796,0-1.562,0.116-2.31,0.338c-0.743,0.228-1.407,0.475-1.984,0.742c-0.577,0.268-1.054,0.512-1.438,0.742
			c-0.38,0.226-0.601,0.336-0.653,0.336c-0.116,0-0.188-0.068-0.232-0.206c-0.046-0.146-0.073-0.314-0.083-0.511
			c-0.017-0.198-0.017-0.378,0-0.546c0.01-0.168,0.017-0.299,0.017-0.381l0.131-0.298c0.419-0.282,0.904-0.531,1.458-0.759
			c0.548-0.229,1.113-0.409,1.69-0.549c0.579-0.144,1.152-0.25,1.729-0.322c0.579-0.065,1.129-0.104,1.634-0.104
			c1.071,0,2.027,0.084,2.876,0.258c0.845,0.168,1.557,0.479,2.129,0.93c0.583,0.449,1.021,1.045,1.337,1.793
			c0.31,0.748,0.462,1.715,0.462,2.896v14.036L172.97,75.96z M169.756,65.221h-1.732c-0.876,0-1.758,0.058-2.645,0.169
			c-0.888,0.116-1.69,0.351-2.406,0.723c-0.723,0.364-1.313,0.871-1.776,1.516c-0.471,0.653-0.702,1.497-0.702,2.541
			c0,0.588,0.104,1.162,0.299,1.709c0.196,0.549,0.479,1.028,0.845,1.437c0.364,0.412,0.806,0.742,1.313,0.997
			c0.506,0.251,1.069,0.378,1.688,0.378c1.018,0,1.925-0.195,2.726-0.592c0.808-0.39,1.49-0.929,2.052-1.607
			c0.564-0.677,1.015-1.443,1.354-2.301c0.336-0.861,0.549-1.756,0.636-2.687c0.027-0.363,0.046-0.735,0.06-1.096
			c0.016-0.372,0.028-0.735,0.028-1.101h0.038C170.938,65.252,170.346,65.221,169.756,65.221z"/>
		<polygon fill="#E88D26" points="101.079,54.822 101.079,50.384 104.632,52.605 		"/>
	</g>
</g>
<g>
	<path fill="#676767" d="M5.287,74.001V8.528c0-0.953,0.327-1.758,0.997-2.421c0.657-0.669,1.457-1.002,2.409-1.002
		c0.954,0,1.79,0.333,2.509,1.002C11.9,6.77,12.27,7.575,12.27,8.528v41.76c3.126-4.179,7.026-7.5,11.681-9.967
		c4.656-2.473,9.68-3.704,15.096-3.704c9.406,0,17.377,3.417,23.93,10.251c6.562,6.844,9.832,15.08,9.832,24.718
		c0,9.646-3.271,17.862-9.832,24.648c-6.553,6.788-14.523,10.186-23.93,10.186c-5.416,0-10.439-1.212-15.096-3.636
		c-4.654-2.416-8.555-5.723-11.681-9.9C12.27,92.883,5.287,84.204,5.287,74.001z M12.27,70.52v1.14
		c0,7.692,2.629,14.245,7.903,19.661c5.258,5.411,11.584,8.122,18.944,8.122c7.359,0,13.656-2.711,18.869-8.122
		c5.226-5.416,7.846-11.984,7.846-19.735c0-7.736-2.62-14.34-7.846-19.8c-5.213-5.457-11.49-8.19-18.798-8.19
		c-7.306,0-13.557,2.617-18.738,7.838C15.283,56.653,12.543,63.016,12.27,70.52z"/>
	<path fill="#676767" d="M80.568,102.999V40.034c0-0.946,0.324-1.753,1.006-2.417c0.678-0.665,1.499-1,2.486-1
		c0.994,0,1.835,0.335,2.498,1c0.673,0.664,0.998,1.471,0.998,2.417v62.965c0,0.952-0.349,1.764-1.07,2.422
		c-0.717,0.672-1.538,0.999-2.49,0.999c-0.951,0-1.744-0.327-2.422-0.999C80.893,104.762,80.568,103.951,80.568,102.999z"/>
	<path fill="#676767" d="M171.248,96.448c-1.622-1.424-1.754-2.945-0.421-4.563c0.565-0.756,1.329-1.181,2.278-1.276
		c0.952-0.094,1.798,0.188,2.561,0.856c7.407,5.409,14.165,8.115,20.235,8.115c6.069,0,10.876-1.422,14.39-4.275
		c3.513-2.367,5.247-5.152,5.2-8.332c-0.056-3.177-1.619-6.005-4.702-8.479c-3.088-2.465-8.095-4.269-15.024-5.414l-0.294-0.134
		c-7.413-1.338-12.678-3.137-15.822-5.418c-5.033-2.946-7.536-7.121-7.536-12.538c0-5.413,2.503-9.968,7.536-13.673
		c4.565-3.135,10.271-4.7,17.119-4.7c2.735,0,5.504,0.454,8.318,1.354c2.8,0.903,4.931,1.757,6.404,2.562
		c1.473,0.809,3.487,2.021,6.063,3.632c0.758,0.577,1.241,1.333,1.418,2.283c0.182,0.946,0.045,1.803-0.418,2.561
		c-0.489,0.762-1.198,1.236-2.139,1.426c-0.957,0.194-1.803,0.047-2.574-0.431c-2.371-1.607-4.141-2.77-5.327-3.485
		c-1.207-0.715-2.919-1.477-5.216-2.277c-2.268-0.804-4.452-1.208-6.529-1.208c-5.533,0-9.842,1.254-12.979,3.77
		c-3.135,2.515-4.702,5.153-4.702,7.909c0,2.751,1.329,5.176,3.986,7.261c3.323,2.285,8.071,3.896,14.241,4.847h0.288
		c6.181,0.946,11.828,2.845,16.962,5.697c5.221,3.421,7.827,7.999,7.827,13.744c0,5.749-2.589,10.543-7.756,14.391
		c-5.186,3.842-11.053,5.77-17.597,5.77C188.021,106.322,179.41,102.999,171.248,96.448z"/>
	<g>
		<path fill="#9E6B28" d="M95.852,103.588V68.901c0-17.788,14.469-32.254,32.256-32.254h34.9c1.551,0,2.804,1.251,2.804,2.805V74.14
			c0,17.785-14.467,32.252-32.252,32.252H98.66C97.106,106.392,95.852,105.142,95.852,103.588z M128.243,43.753
			c-13.94,0-25.278,11.342-25.278,25.283v30.251h30.456c13.943,0,25.283-11.341,25.283-25.28V43.753H128.243z"/>
	</g>
	<g>
		<path fill="#676767" d="M109.231,91.324V69.901c0-10.985,8.934-19.917,19.918-19.917h21.553c0.956,0,1.73,0.773,1.73,1.732v21.422
			c0,10.984-8.933,19.918-19.915,19.918h-21.553C110.004,93.056,109.231,92.283,109.231,91.324z M129.11,53.051
			c-9.275,0-16.815,7.545-16.815,16.816V89.99h20.258c9.276,0,16.818-7.541,16.818-16.816V53.051H129.11z"/>
	</g>
	<g>
		<path fill="#676767" d="M50.758,5.866c1.428,0.737,2.299,2.022,2.618,3.865h-1.952c-0.232-1.029-0.716-1.779-1.447-2.248
			c-0.732-0.471-1.652-0.707-2.766-0.707c-1.319,0-2.432,0.487-3.335,1.47c-0.903,0.979-1.354,2.435-1.354,4.372
			c0,1.675,0.373,3.038,1.116,4.088c0.746,1.056,1.961,1.58,3.645,1.58c1.289,0,2.357-0.368,3.2-1.109
			c0.847-0.736,1.278-1.933,1.299-3.581h-4.56v-1.582h6.394v7.539h-1.269l-0.478-1.815c-0.657,0.713-1.238,1.203-1.746,1.48
			c-0.849,0.472-1.933,0.707-3.247,0.707c-1.695,0-3.154-0.541-4.378-1.619c-1.332-1.355-1.998-3.217-1.998-5.583
			c0-2.356,0.65-4.234,1.954-5.628c1.235-1.332,2.839-1.996,4.806-1.996C48.608,5.098,49.772,5.355,50.758,5.866z"/>
		<path fill="#676767" d="M75.972,5.105h6.956c1.146,0,2.089,0.164,2.834,0.494c1.411,0.629,2.116,1.799,2.116,3.497
			c0,0.886-0.189,1.613-0.568,2.177c-0.377,0.563-0.907,1.017-1.587,1.36c0.597,0.234,1.048,0.544,1.351,0.927
			c0.3,0.383,0.468,1.006,0.504,1.867l0.071,1.982c0.021,0.565,0.069,0.986,0.146,1.261c0.124,0.47,0.348,0.773,0.667,0.907v0.334
			H85.92c-0.07-0.129-0.126-0.294-0.167-0.494c-0.04-0.203-0.077-0.592-0.104-1.17l-0.125-2.47c-0.05-0.967-0.407-1.617-1.084-1.945
			c-0.384-0.181-0.989-0.272-1.811-0.272h-4.586v6.352h-2.072V5.105z M82.706,11.889c0.943,0,1.691-0.188,2.241-0.565
			c0.551-0.375,0.826-1.055,0.826-2.037c0-1.054-0.385-1.775-1.155-2.157c-0.411-0.202-0.962-0.302-1.649-0.302h-4.925v5.062H82.706
			z"/>
		<path fill="#676767" d="M112.812,5.463v8.71c0,1.021,0.199,1.872,0.599,2.549c0.592,1.021,1.591,1.533,2.997,1.533
			c1.686,0,2.83-0.554,3.437-1.659c0.324-0.6,0.489-1.408,0.489-2.423v-8.71h1.993v7.912c0,1.731-0.242,3.064-0.727,3.999
			c-0.886,1.7-2.566,2.55-5.031,2.55c-2.47,0-4.142-0.85-5.023-2.55c-0.486-0.935-0.729-2.268-0.729-3.999V5.463H112.812z"/>
		<path fill="#676767" d="M144.684,5.141h6.814c1.345,0,2.433,0.369,3.263,1.108c0.828,0.738,1.241,1.776,1.241,3.115
			c0,1.147-0.367,2.15-1.107,3.001c-0.737,0.854-1.869,1.28-3.393,1.28h-4.757v6.227h-2.062V5.141z M152.685,7.167
			c-0.453-0.207-1.075-0.311-1.862-0.311h-4.077v5.104h4.077c0.918,0,1.664-0.191,2.235-0.571c0.575-0.383,0.861-1.055,0.861-2.019
			C153.919,8.29,153.509,7.553,152.685,7.167z"/>
		<path fill="#676767" d="M191.105,7.478c0.967,1.245,1.447,2.842,1.447,4.784c0,2.104-0.55,3.853-1.655,5.245
			c-1.295,1.638-3.142,2.457-5.539,2.457c-2.243,0-4.004-0.719-5.284-2.148c-1.145-1.382-1.716-3.129-1.716-5.237
			c0-1.905,0.489-3.536,1.467-4.891c1.255-1.738,3.111-2.607,5.571-2.607C187.968,5.081,189.869,5.88,191.105,7.478z
			 M189.367,16.455c0.775-1.205,1.166-2.592,1.166-4.16c0-1.656-0.45-2.989-1.345-4.001c-0.895-1.011-2.121-1.518-3.673-1.518
			c-1.507,0-2.734,0.502-3.688,1.504c-0.949,1-1.426,2.477-1.426,4.429c0,1.563,0.406,2.879,1.225,3.947
			c0.814,1.075,2.139,1.61,3.969,1.61C187.333,18.266,188.589,17.663,189.367,16.455z"/>
	</g>
	<g>
		<path fill="#676767" d="M232.482,98.322c-0.483-0.842-1.148-1.508-1.975-1.983c-0.826-0.477-1.731-0.72-2.688-0.72
			c-0.96,0-1.867,0.245-2.697,0.722c-0.833,0.479-1.499,1.148-1.979,1.987c-0.48,0.841-0.726,1.751-0.726,2.709
			c0,0.948,0.245,1.852,0.726,2.68c0.48,0.832,1.149,1.497,1.982,1.977c0.836,0.481,1.74,0.727,2.694,0.727
			c0.953,0,1.859-0.245,2.692-0.728c0.834-0.486,1.501-1.148,1.978-1.979c0.48-0.828,0.724-1.737,0.724-2.703
			C233.213,100.066,232.967,99.16,232.482,98.322z M227.83,105.524c-0.79,0-1.547-0.202-2.248-0.604
			c-0.697-0.4-1.256-0.955-1.654-1.646c-0.398-0.694-0.601-1.447-0.601-2.244c0-0.803,0.202-1.563,0.601-2.263
			c0.398-0.696,0.955-1.255,1.652-1.657c0.698-0.399,1.457-0.603,2.25-0.603c0.797,0,1.543,0.203,2.23,0.603
			c0.688,0.402,1.239,0.961,1.639,1.658c0.401,0.698,0.603,1.457,0.603,2.247c0,0.806-0.201,1.564-0.6,2.254
			c-0.398,0.69-0.95,1.244-1.642,1.647C229.369,105.322,228.621,105.524,227.83,105.524z"/>
		<path fill="#676767" d="M230.346,103.061v-0.692c0-0.45-0.049-0.762-0.153-0.956c-0.087-0.164-0.242-0.313-0.464-0.439
			c0.251-0.177,0.411-0.343,0.498-0.499c0.124-0.237,0.185-0.521,0.185-0.845c0-0.378-0.085-0.709-0.258-0.994
			c-0.171-0.283-0.402-0.49-0.678-0.618c-0.274-0.125-0.704-0.188-1.317-0.188h-2.636v6.29h1.138v-2.554h1.443
			c0.462,0,0.655,0.036,0.736,0.066c0.113,0.046,0.194,0.114,0.256,0.21c0.061,0.101,0.102,0.282,0.12,0.544l0.047,0.754
			c0.029,0.349,0.079,0.655,0.149,0.918l0.017,0.062h1.302l-0.184-0.296C230.411,103.623,230.346,103.369,230.346,103.061z
			 M226.66,98.879h1.476c0.451,0,0.757,0.069,0.913,0.197c0.149,0.126,0.227,0.334,0.227,0.62c0,0.326-0.105,0.55-0.318,0.683
			c-0.149,0.095-0.444,0.142-0.881,0.142h-1.416V98.879z"/>
	</g>
</g>
</svg>
